<svg width="512" height="512" viewBox="0 0 512 512" fill="none" xmlns="http://www.w3.org/2000/svg">
<g clip-path="url(#clip0)">
<path fill-rule="evenodd" clip-rule="evenodd" d="M469.5 0H0V13L68 80V410H85.5V73L29.5 17H469.5V0ZM101.5 68.5H431.5L499.5 0H512V469.5H495V30L438.5 85.5L101.5 85V68.5ZM0 42H17V482L75 426L409.5 426.5V444H80L12.5 512H0V42ZM426.5 102H443.5V431L512 499.5V512H42.5V495H483L426.5 438.5V102ZM43 77C44.6212 77.0484 46.1921 77.5734 47.5167 78.5094C48.8412 79.4454 49.8606 80.751 50.4476 82.2629C51.0345 83.7749 51.163 85.4262 50.817 87.0108C50.4709 88.5953 49.6657 90.0428 48.5019 91.1724C47.338 92.302 45.8672 93.0636 44.273 93.3622C42.6789 93.6608 41.0321 93.4831 39.5383 92.8513C38.0445 92.2195 36.77 91.1616 35.874 89.8097C34.9779 88.4578 34.5 86.8719 34.5 85.25C34.5336 83.0289 35.4479 80.9121 37.0418 79.3651C38.6358 77.818 40.7789 76.9673 43 77V77ZM426.75 34C428.481 34 430.172 34.5132 431.611 35.4746C433.05 36.4361 434.172 37.8027 434.834 39.4015C435.496 41.0004 435.669 42.7597 435.332 44.457C434.994 46.1544 434.161 47.7135 432.937 48.9372C431.713 50.1609 430.154 50.9943 428.457 51.3319C426.76 51.6695 425 51.4962 423.402 50.8339C421.803 50.1717 420.436 49.0502 419.475 47.6112C418.513 46.1723 418 44.4806 418 42.75C418 40.4294 418.922 38.2038 420.563 36.5628C422.204 34.9219 424.429 34 426.75 34V34ZM469.5 77C471.181 77 472.825 77.4985 474.222 78.4325C475.62 79.3665 476.71 80.694 477.353 82.2472C477.996 83.8004 478.165 85.5094 477.837 87.1583C477.509 88.8071 476.699 90.3217 475.51 91.5104C474.322 92.6992 472.807 93.5087 471.158 93.8367C469.509 94.1647 467.8 93.9963 466.247 93.353C464.694 92.7096 463.366 91.6202 462.432 90.2223C461.499 88.8245 461 87.1811 461 85.5C461 83.2457 461.896 81.0837 463.49 79.4896C465.084 77.8955 467.246 77 469.5 77ZM469.25 418C470.981 418 472.672 418.513 474.111 419.475C475.55 420.436 476.672 421.803 477.334 423.402C477.996 425 478.169 426.76 477.832 428.457C477.494 430.154 476.661 431.713 475.437 432.937C474.213 434.161 472.654 434.994 470.957 435.332C469.26 435.669 467.5 435.496 465.902 434.834C464.303 434.172 462.936 433.05 461.975 431.611C461.013 430.172 460.5 428.481 460.5 426.75C460.5 424.429 461.422 422.204 463.063 420.563C464.704 418.922 466.929 418 469.25 418V418ZM426.75 460.5C428.481 460.5 430.172 461.013 431.611 461.975C433.05 462.936 434.172 464.303 434.834 465.902C435.496 467.5 435.669 469.26 435.332 470.957C434.994 472.654 434.161 474.213 432.937 475.437C431.713 476.661 430.154 477.494 428.457 477.832C426.76 478.169 425 477.996 423.402 477.334C421.803 476.672 420.436 475.55 419.475 474.111C418.513 472.672 418 470.981 418 469.25C418 466.929 418.922 464.704 420.563 463.063C422.204 461.422 424.429 460.5 426.75 460.5V460.5ZM42.75 417.5C44.4806 417.5 46.1723 418.013 47.6112 418.975C49.0502 419.936 50.1717 421.303 50.8339 422.902C51.4962 424.5 51.6695 426.26 51.3319 427.957C50.9943 429.654 50.1609 431.213 48.9372 432.437C47.7135 433.661 46.1544 434.494 44.457 434.832C42.7597 435.169 41.0004 434.996 39.4015 434.334C37.8027 433.672 36.4361 432.55 35.4746 431.111C34.5132 429.672 34 427.981 34 426.25C34 423.929 34.9219 421.704 36.5628 420.063C38.2038 418.422 40.4294 417.5 42.75 417.5V417.5ZM85.25 460.5C86.9806 460.5 88.6723 461.013 90.1112 461.975C91.5502 462.936 92.6717 464.303 93.3339 465.902C93.9962 467.5 94.1695 469.26 93.8319 470.957C93.4943 472.654 92.6609 474.213 91.4372 475.437C90.2135 476.661 88.6544 477.494 86.957 477.832C85.2597 478.169 83.5004 477.996 81.9015 477.334C80.3027 476.672 78.9361 475.55 77.9746 474.111C77.0132 472.672 76.5 470.981 76.5 469.25C76.5 466.929 77.4219 464.704 79.0628 463.063C80.7038 461.422 82.9294 460.5 85.25 460.5V460.5ZM85.25 34C86.9806 34 88.6723 34.5132 90.1112 35.4746C91.5502 36.4361 92.6717 37.8027 93.3339 39.4015C93.9962 41.0004 94.1695 42.7597 93.8319 44.457C93.4943 46.1544 92.6609 47.7135 91.4372 48.9372C90.2135 50.1609 88.6544 50.9943 86.957 51.3319C85.2597 51.6695 83.5004 51.4962 81.9015 50.8339C80.3027 50.1717 78.9361 49.0502 77.9746 47.6112C77.0132 46.1723 76.5 44.4806 76.5 42.75C76.5 40.4294 77.4219 38.2038 79.0628 36.5628C80.7038 34.9219 82.9294 34 85.25 34V34Z" fill="#212121" stroke="#212121" stroke-width="0.5" stroke-linejoin="round"/>
<path fill-rule="evenodd" clip-rule="evenodd" d="M160.435 310.671C160.432 311.302 160.554 311.927 160.795 312.511C161.035 313.095 161.388 313.625 161.835 314.071C162.281 314.517 162.811 314.871 163.395 315.111C163.978 315.351 164.604 315.474 165.235 315.471H216.969C217.6 315.474 218.226 315.351 218.809 315.111C219.393 314.871 219.923 314.517 220.369 314.071C220.815 313.625 221.169 313.095 221.409 312.511C221.65 311.927 221.772 311.302 221.769 310.671V258.936C221.772 258.304 221.65 257.679 221.409 257.096C221.169 256.512 220.815 255.982 220.369 255.535C219.923 255.089 219.393 254.736 218.809 254.496C218.226 254.255 217.6 254.133 216.969 254.135H165.236C164.605 254.133 163.98 254.255 163.396 254.496C162.813 254.736 162.282 255.089 161.836 255.535C161.39 255.982 161.036 256.512 160.796 257.096C160.556 257.679 160.434 258.304 160.436 258.936V310.669L160.435 310.671ZM188.435 257.338C188.628 257.39 188.81 257.481 188.968 257.605C189.173 257.77 189.343 257.974 189.468 258.204C189.638 258.534 189.719 258.902 189.702 259.272V264.138C189.715 264.434 189.666 264.73 189.556 265.006C189.447 265.282 189.281 265.531 189.068 265.738C188.645 266.138 188.19 266.549 187.702 266.971C187.191 267.418 186.732 267.921 186.335 268.471C185.886 269.14 185.664 269.934 185.702 270.738C185.682 271.556 185.817 272.371 186.102 273.138C186.459 273.919 187.01 274.596 187.702 275.105C188.758 275.914 189.885 276.628 191.068 277.238C192.512 278.016 194.412 278.961 196.768 280.072C198.59 280.961 200.19 281.828 201.568 282.672C202.881 283.46 204.053 284.463 205.035 285.638C206.012 286.857 206.727 288.264 207.135 289.772C207.644 291.741 207.879 293.771 207.835 295.805C207.881 298.183 207.566 300.554 206.902 302.838C206.368 304.651 205.46 306.332 204.235 307.772C203.091 309.074 201.666 310.099 200.068 310.772C198.317 311.489 196.458 311.906 194.568 312.005C194.03 312.019 193.506 311.828 193.102 311.471C192.9 311.286 192.742 311.059 192.638 310.805C192.534 310.551 192.488 310.278 192.502 310.005V305.272C192.488 304.978 192.534 304.685 192.637 304.41C192.74 304.135 192.898 303.883 193.102 303.672L194.502 302.272C195.025 301.738 195.484 301.145 195.868 300.505C196.329 299.658 196.548 298.701 196.502 297.738C196.522 296.844 196.386 295.953 196.102 295.105C195.763 294.276 195.211 293.551 194.502 293.005C193.471 292.194 192.353 291.501 191.168 290.939C189.745 290.228 187.901 289.384 185.635 288.405C184.263 287.831 182.927 287.174 181.635 286.439C180.354 285.713 179.196 284.79 178.202 283.705C177.15 282.533 176.325 281.177 175.768 279.705C175.1 277.858 174.783 275.902 174.835 273.939C174.835 268.295 175.957 264.128 178.202 261.439C180.446 258.749 183.791 257.36 188.235 257.272L188.435 257.338ZM189.102 303.671C189.305 303.883 189.463 304.134 189.566 304.409C189.67 304.684 189.716 304.978 189.702 305.271V308.605C189.683 309.182 189.444 309.73 189.035 310.138C188.867 310.353 188.656 310.529 188.414 310.656C188.173 310.783 187.907 310.856 187.635 310.871C187.012 310.871 186.312 310.438 185.535 309.571C184.786 308.748 184.167 307.815 183.702 306.804H183.436V308.804C183.451 309.431 183.224 310.04 182.803 310.504C182.598 310.733 182.346 310.914 182.064 311.035C181.781 311.156 181.476 311.214 181.169 311.204H176.636C176.341 311.2 176.05 311.136 175.78 311.016C175.511 310.895 175.269 310.721 175.069 310.504C174.843 310.283 174.664 310.019 174.543 309.727C174.423 309.434 174.364 309.12 174.369 308.804V295.869C174.364 295.553 174.423 295.239 174.543 294.947C174.664 294.654 174.843 294.39 175.069 294.169C175.269 293.952 175.511 293.778 175.78 293.657C176.05 293.537 176.341 293.473 176.636 293.469H181.769C182.094 293.447 182.419 293.506 182.715 293.64C183.012 293.773 183.271 293.978 183.469 294.236C183.857 294.776 184.099 295.408 184.169 296.069C184.342 297.42 184.655 298.749 185.103 300.036C185.556 301.182 186.442 302.104 187.569 302.603C188.134 302.873 188.652 303.234 189.103 303.669L189.102 303.671ZM198.168 260.471C198.158 260.167 198.212 259.864 198.326 259.583C198.441 259.301 198.615 259.047 198.835 258.838C199.046 258.632 199.297 258.47 199.571 258.361C199.846 258.252 200.139 258.199 200.435 258.204H204.568C205.195 258.189 205.804 258.416 206.268 258.838C206.497 259.042 206.679 259.294 206.8 259.577C206.92 259.859 206.978 260.164 206.968 260.471V272.204C206.969 272.52 206.908 272.832 206.788 273.124C206.668 273.416 206.491 273.681 206.268 273.904C206.045 274.127 205.78 274.304 205.488 274.424C205.196 274.544 204.884 274.605 204.568 274.604H200.168C199.846 274.616 199.525 274.56 199.227 274.44C198.928 274.319 198.658 274.136 198.435 273.904C197.973 273.398 197.691 272.754 197.635 272.071C197.527 270.959 197.222 269.876 196.735 268.871C196.26 267.929 195.502 267.16 194.568 266.671C194.015 266.369 193.509 265.987 193.068 265.538C192.676 265.099 192.472 264.525 192.501 263.938V261.138C192.503 260.847 192.567 260.56 192.688 260.296C192.808 260.032 192.983 259.796 193.201 259.605C193.573 259.203 194.088 258.963 194.634 258.938C195.256 258.938 195.89 259.304 196.534 260.038C197.136 260.708 197.641 261.46 198.034 262.271L198.168 260.471ZM226.301 310.605C226.299 311.236 226.421 311.861 226.661 312.445C226.901 313.028 227.255 313.558 227.701 314.005C228.147 314.451 228.678 314.804 229.261 315.045C229.845 315.285 230.47 315.407 231.101 315.405H282.835C283.466 315.407 284.092 315.285 284.675 315.045C285.259 314.804 285.789 314.451 286.235 314.005C286.681 313.558 287.035 313.028 287.275 312.445C287.516 311.861 287.638 311.236 287.635 310.605V258.869C287.638 258.238 287.516 257.613 287.275 257.029C287.035 256.445 286.681 255.915 286.235 255.469C285.789 255.023 285.259 254.669 284.675 254.429C284.092 254.189 283.466 254.066 282.835 254.069H231.102C230.471 254.066 229.846 254.189 229.262 254.429C228.679 254.669 228.148 255.023 227.702 255.469C227.256 255.915 226.903 256.445 226.662 257.029C226.422 257.613 226.3 258.238 226.302 258.869V310.603L226.301 310.605ZM253.668 258.971C253.894 259.192 254.073 259.456 254.194 259.749C254.314 260.041 254.373 260.355 254.368 260.671V302.671H257.234C257.55 302.665 257.864 302.724 258.157 302.845C258.449 302.965 258.714 303.144 258.934 303.371C259.156 303.581 259.333 303.834 259.453 304.115C259.574 304.396 259.635 304.698 259.634 305.004V308.871C259.635 309.177 259.574 309.479 259.453 309.76C259.333 310.041 259.156 310.294 258.934 310.504C258.714 310.731 258.449 310.91 258.157 311.03C257.864 311.151 257.55 311.21 257.234 311.204H241.769C241.453 311.21 241.139 311.151 240.846 311.03C240.554 310.91 240.289 310.731 240.069 310.504C239.847 310.294 239.67 310.041 239.55 309.76C239.429 309.479 239.368 309.177 239.369 308.871V305.004C239.368 304.698 239.429 304.396 239.55 304.115C239.67 303.834 239.847 303.581 240.069 303.371C240.289 303.144 240.554 302.965 240.846 302.845C241.139 302.724 241.453 302.665 241.769 302.671H243.302V266.871H241.769C241.45 266.876 241.133 266.813 240.84 266.686C240.547 266.56 240.284 266.373 240.069 266.138C239.848 265.92 239.672 265.66 239.552 265.374C239.432 265.088 239.37 264.781 239.369 264.471V260.605C239.368 260.299 239.429 259.996 239.55 259.715C239.67 259.434 239.847 259.181 240.069 258.971C240.289 258.744 240.554 258.565 240.846 258.445C241.139 258.324 241.453 258.265 241.769 258.271H251.969C252.285 258.265 252.599 258.324 252.891 258.444C253.183 258.564 253.448 258.743 253.669 258.969L253.668 258.971ZM257.968 283.786C258.507 283.339 259.148 283.03 259.834 282.887C260.545 282.755 261.214 282.454 261.783 282.008C262.352 281.562 262.804 280.984 263.101 280.325C263.723 278.973 264.034 276.966 264.034 274.303C264.034 271.863 263.634 270.078 262.834 268.948C262.403 268.368 261.852 267.887 261.22 267.537C260.588 267.187 259.888 266.976 259.168 266.918C258.628 266.851 258.131 266.591 257.768 266.187C257.41 265.784 257.22 265.261 257.234 264.723V260.664C257.233 260.348 257.295 260.036 257.415 259.745C257.536 259.454 257.713 259.189 257.936 258.967C258.159 258.744 258.424 258.568 258.715 258.448C259.007 258.328 259.319 258.267 259.634 258.269H261.901C263.842 258.238 265.765 258.636 267.534 259.434C269.185 260.198 270.635 261.337 271.768 262.76C272.99 264.334 273.896 266.13 274.434 268.049C275.082 270.32 275.396 272.674 275.368 275.036C275.425 277.633 275.087 280.224 274.368 282.72C273.808 284.638 272.816 286.403 271.468 287.877C270.178 289.223 268.574 290.229 266.801 290.805C264.788 291.451 262.682 291.765 260.568 291.736H259.634C259.319 291.737 259.007 291.677 258.715 291.557C258.423 291.437 258.158 291.261 257.935 291.038C257.712 290.816 257.535 290.551 257.415 290.26C257.295 289.969 257.233 289.656 257.234 289.341V285.548C257.216 285.218 257.273 284.888 257.4 284.583C257.528 284.277 257.722 284.004 257.969 283.785L257.968 283.786ZM348.7 315.404C349.332 315.406 349.957 315.284 350.541 315.043C351.125 314.802 351.655 314.448 352.101 314.002C352.547 313.555 352.901 313.024 353.141 312.44C353.381 311.856 353.503 311.23 353.5 310.599V258.806C353.503 258.174 353.381 257.548 353.14 256.965C352.9 256.381 352.547 255.85 352.101 255.403C351.654 254.957 351.124 254.603 350.541 254.362C349.957 254.121 349.332 253.998 348.7 254H296.968C296.337 253.998 295.711 254.121 295.128 254.362C294.544 254.603 294.014 254.957 293.568 255.403C293.121 255.85 292.768 256.381 292.528 256.965C292.288 257.548 292.165 258.174 292.168 258.806V310.597C292.165 311.228 292.287 311.854 292.527 312.438C292.767 313.022 293.121 313.553 293.567 314C294.013 314.446 294.544 314.8 295.127 315.041C295.711 315.282 296.337 315.404 296.968 315.402H348.701L348.7 315.404ZM315.434 302.604C315.749 302.603 316.062 302.664 316.354 302.784C316.646 302.904 316.911 303.081 317.134 303.304C317.357 303.527 317.534 303.792 317.654 304.084C317.774 304.376 317.835 304.688 317.834 305.004V308.804C317.835 309.12 317.774 309.432 317.654 309.724C317.534 310.016 317.357 310.281 317.134 310.504C316.911 310.727 316.645 310.904 316.354 311.024C316.062 311.144 315.749 311.205 315.434 311.204H303.102C302.786 311.205 302.474 311.144 302.182 311.024C301.89 310.904 301.625 310.727 301.402 310.504C301.179 310.281 301.002 310.016 300.882 309.724C300.762 309.432 300.701 309.12 300.702 308.804V305.004C300.697 304.685 300.76 304.369 300.886 304.076C301.013 303.782 301.2 303.52 301.435 303.304C301.685 303.07 301.978 302.888 302.299 302.767C302.619 302.647 302.96 302.592 303.302 302.604L315.569 261.004C315.615 260.819 315.682 260.641 315.769 260.471C315.803 260.343 315.871 260.227 315.964 260.133C316.058 260.04 316.174 259.972 316.302 259.938C316.513 259.982 316.702 260.1 316.835 260.271C316.874 260.304 316.906 260.345 316.929 260.391C316.952 260.437 316.965 260.486 316.969 260.538L320.235 273.871C320.362 274.235 320.43 274.618 320.435 275.004C320.436 275.217 320.414 275.429 320.369 275.638C320.324 275.838 320.279 276.049 320.235 276.271L313.235 302.605H315.435L315.434 302.604ZM320.3 261.131C320.25 260.958 320.228 260.778 320.234 260.599C320.235 260.289 320.297 259.982 320.417 259.697C320.537 259.412 320.713 259.153 320.934 258.936C321.15 258.701 321.413 258.515 321.706 258.388C321.999 258.262 322.315 258.199 322.634 258.204H327.767C328.283 258.198 328.787 258.362 329.201 258.671C329.614 258.971 329.928 259.389 330.101 259.871L342.634 302.604C342.939 302.603 343.242 302.665 343.523 302.785C343.804 302.905 344.057 303.082 344.267 303.304C344.494 303.525 344.673 303.789 344.793 304.082C344.914 304.374 344.973 304.688 344.967 305.004V308.804C344.972 309.12 344.913 309.434 344.793 309.726C344.672 310.019 344.494 310.283 344.267 310.504C344.058 310.726 343.806 310.903 343.526 311.023C343.247 311.143 342.945 311.205 342.64 311.204H328.76C328.445 311.205 328.133 311.143 327.842 311.023C327.55 310.903 327.286 310.726 327.064 310.502C326.841 310.279 326.665 310.014 326.546 309.723C326.427 309.431 326.366 309.119 326.368 308.804V305.004C326.362 304.689 326.42 304.375 326.539 304.083C326.657 303.791 326.834 303.526 327.058 303.304C327.273 303.078 327.533 302.899 327.821 302.779C328.11 302.658 328.419 302.599 328.732 302.604H330.702L328.968 296.004H321.168C320.846 296.016 320.524 295.96 320.226 295.838C319.927 295.717 319.657 295.533 319.435 295.299C318.994 294.838 318.754 294.222 318.768 293.585C318.76 293.381 318.783 293.177 318.835 292.98L319.701 289.619C319.824 289.095 320.122 288.629 320.547 288.299C320.972 287.968 321.497 287.794 322.035 287.804H326.502L320.3 261.131Z" fill="#212121"/>
<path fill-rule="evenodd" clip-rule="evenodd" d="M151.033 235.535C151.665 235.538 152.29 235.416 152.873 235.176C153.457 234.935 153.987 234.582 154.433 234.136C154.88 233.689 155.233 233.159 155.473 232.575C155.714 231.992 155.836 231.367 155.833 230.735V179.002C155.836 178.371 155.713 177.746 155.473 177.162C155.233 176.579 154.879 176.048 154.433 175.602C153.987 175.156 153.457 174.803 152.873 174.562C152.29 174.322 151.664 174.199 151.033 174.202H99.2999C98.6689 174.199 98.0436 174.322 97.4601 174.562C96.8766 174.803 96.3464 175.156 95.9002 175.602C95.454 176.048 95.1005 176.579 94.8602 177.162C94.6198 177.746 94.4974 178.371 94.4999 179.002V230.735C94.4973 231.367 94.6196 231.992 94.8599 232.575C95.1002 233.159 95.4537 233.689 95.8999 234.136C96.3462 234.582 96.8764 234.935 97.4599 235.176C98.0435 235.416 98.6688 235.538 99.2999 235.535H151.033ZM119.93 179.002C120.152 179.22 120.328 179.479 120.449 179.765C120.569 180.051 120.632 180.358 120.633 180.669V222.669H122.3C122.616 222.663 122.93 222.722 123.222 222.843C123.515 222.963 123.779 223.142 124 223.369C124.222 223.579 124.399 223.832 124.519 224.113C124.639 224.394 124.701 224.696 124.7 225.002V228.869C124.701 229.175 124.639 229.478 124.518 229.759C124.397 230.039 124.22 230.292 123.997 230.502C123.775 230.729 123.51 230.908 123.217 231.028C122.924 231.149 122.609 231.208 122.292 231.202H107.975C107.658 231.208 107.343 231.149 107.05 231.028C106.756 230.908 106.491 230.729 106.269 230.502C106.047 230.292 105.87 230.039 105.749 229.758C105.629 229.477 105.568 229.175 105.569 228.869V225.002C105.568 224.695 105.631 224.392 105.754 224.111C105.876 223.83 106.055 223.577 106.28 223.369C106.506 223.142 106.776 222.962 107.073 222.842C107.37 222.722 107.689 222.663 108.009 222.669H109.569V186.869H108.009C107.371 186.862 106.761 186.608 106.306 186.161C105.851 185.713 105.587 185.107 105.569 184.469V180.602C105.568 180.297 105.63 179.994 105.751 179.713C105.872 179.432 106.049 179.179 106.272 178.969C106.494 178.742 106.76 178.563 107.053 178.443C107.347 178.322 107.662 178.263 107.979 178.269H118.225C118.545 178.265 118.862 178.328 119.156 178.454C119.449 178.58 119.713 178.767 119.93 179.002ZM123.433 202.869C123.447 202.592 123.515 202.32 123.633 202.069C123.713 201.907 123.836 201.771 123.99 201.677C124.143 201.583 124.32 201.534 124.5 201.535C125.097 201.472 125.688 201.36 126.267 201.202C127.004 200.999 127.687 200.635 128.267 200.135C128.987 199.496 129.546 198.697 129.9 197.802C130.393 196.505 130.619 195.122 130.567 193.735C130.567 191.469 130.167 189.813 129.367 188.769C128.567 187.725 127.345 187.113 125.7 186.935C125.094 186.856 124.538 186.56 124.133 186.102C123.72 185.66 123.493 185.075 123.5 184.469V180.669C123.501 180.359 123.563 180.052 123.683 179.766C123.804 179.479 123.979 179.22 124.2 179.002C124.416 178.767 124.679 178.58 124.972 178.454C125.265 178.328 125.581 178.265 125.9 178.269H128.633C132.9 178.269 136.133 179.358 138.333 181.535C140.533 183.713 141.633 187.269 141.633 192.202C141.633 196.38 140.822 199.48 139.2 201.502C137.578 203.524 135.167 204.846 131.967 205.469V205.802C132.992 205.903 134.007 206.092 135 206.369C135.787 206.593 136.507 207.005 137.1 207.569C137.733 208.208 138.232 208.967 138.567 209.802C139.031 210.944 139.388 212.127 139.633 213.335L141.633 222.669H142.833C143.15 222.663 143.464 222.722 143.756 222.843C144.048 222.963 144.313 223.142 144.533 223.369C144.755 223.579 144.932 223.832 145.052 224.113C145.173 224.394 145.234 224.696 145.233 225.002V228.869C145.234 229.175 145.173 229.477 145.052 229.758C144.932 230.039 144.755 230.292 144.533 230.502C144.313 230.729 144.048 230.908 143.756 231.028C143.464 231.149 143.15 231.208 142.833 231.202H135.7C134.729 231.218 133.78 230.914 133 230.335C132.229 229.769 131.695 228.938 131.5 228.002L128.167 215.269C127.81 214.069 127.477 213.047 127.167 212.202C126.919 211.442 126.427 210.786 125.767 210.335C125.196 209.976 124.66 209.563 124.167 209.102C123.938 208.871 123.76 208.594 123.645 208.29C123.53 207.986 123.481 207.66 123.5 207.335L123.433 202.869ZM216.899 235.469C217.531 235.472 218.156 235.349 218.739 235.109C219.323 234.869 219.853 234.515 220.299 234.069C220.746 233.623 221.099 233.093 221.339 232.509C221.58 231.925 221.702 231.3 221.699 230.669V178.935C221.702 178.304 221.58 177.679 221.339 177.095C221.099 176.512 220.746 175.982 220.299 175.535C219.853 175.089 219.323 174.736 218.739 174.495C218.156 174.255 217.531 174.133 216.899 174.135H165.166C164.535 174.133 163.91 174.255 163.326 174.495C162.743 174.736 162.213 175.089 161.766 175.535C161.32 175.982 160.967 176.512 160.726 177.095C160.486 177.679 160.364 178.304 160.366 178.935V230.669C160.364 231.3 160.486 231.925 160.726 232.509C160.967 233.093 161.32 233.623 161.766 234.069C162.213 234.515 162.743 234.869 163.326 235.109C163.91 235.349 164.535 235.472 165.166 235.469H216.899ZM186.533 178.905C186.759 179.126 186.938 179.391 187.058 179.683C187.179 179.976 187.238 180.289 187.233 180.605V228.866C187.234 229.182 187.173 229.495 187.053 229.787C186.933 230.079 186.757 230.344 186.534 230.568C186.31 230.791 186.045 230.968 185.753 231.088C185.461 231.209 185.149 231.27 184.833 231.269H175.099C174.783 231.274 174.468 231.215 174.176 231.093C173.884 230.972 173.619 230.791 173.399 230.563C173.173 230.34 172.993 230.073 172.873 229.779C172.753 229.484 172.694 229.168 172.699 228.85V225.021C172.694 224.703 172.753 224.387 172.873 224.092C172.993 223.798 173.173 223.531 173.399 223.307C173.619 223.08 173.884 222.899 174.176 222.778C174.469 222.657 174.783 222.597 175.099 222.602H176.633V186.802H175.099C174.784 186.804 174.471 186.743 174.179 186.623C173.887 186.503 173.622 186.326 173.399 186.103C173.176 185.88 172.999 185.614 172.879 185.323C172.759 185.031 172.698 184.718 172.699 184.402V180.535C172.699 180.23 172.76 179.927 172.881 179.646C173.001 179.365 173.178 179.112 173.399 178.902C173.62 178.675 173.885 178.496 174.177 178.376C174.469 178.256 174.783 178.196 175.099 178.202H184.833C185.149 178.197 185.463 178.257 185.756 178.378C186.048 178.499 186.313 178.678 186.533 178.905ZM190.833 200.837C191.051 200.617 191.31 200.441 191.596 200.321C191.882 200.201 192.189 200.138 192.499 200.137H193.766V198.004C193.765 197.698 193.827 197.396 193.947 197.115C194.067 196.834 194.244 196.581 194.466 196.371C194.686 196.144 194.951 195.965 195.243 195.845C195.536 195.725 195.85 195.665 196.166 195.671H198.232C198.549 195.665 198.863 195.725 199.155 195.845C199.447 195.965 199.712 196.144 199.932 196.371C200.154 196.581 200.331 196.834 200.451 197.115C200.572 197.396 200.633 197.698 200.632 198.004V210.271C200.634 210.587 200.573 210.899 200.452 211.191C200.332 211.483 200.156 211.748 199.932 211.971C199.709 212.194 199.444 212.371 199.152 212.491C198.861 212.611 198.548 212.672 198.232 212.671H196.166C195.85 212.672 195.538 212.611 195.246 212.491C194.954 212.371 194.689 212.194 194.466 211.971C194.243 211.748 194.066 211.483 193.946 211.191C193.826 210.899 193.765 210.587 193.766 210.271V208.271H192.499C192.189 208.27 191.882 208.208 191.596 208.088C191.31 207.967 191.051 207.792 190.833 207.571C190.598 207.355 190.411 207.093 190.284 206.8C190.158 206.507 190.095 206.19 190.099 205.871V202.535C190.095 202.216 190.158 201.9 190.284 201.607C190.411 201.314 190.598 201.051 190.833 200.835V200.837ZM190.833 186.104C190.598 185.889 190.411 185.626 190.284 185.333C190.158 185.04 190.095 184.724 190.099 184.404V180.604C190.095 180.285 190.158 179.969 190.284 179.676C190.411 179.383 190.598 179.12 190.833 178.904C191.051 178.684 191.31 178.508 191.596 178.388C191.882 178.268 192.189 178.205 192.499 178.204H206.966C207.58 178.219 208.165 178.47 208.599 178.905C209.034 179.339 209.284 179.924 209.299 180.538V189.938C209.305 190.254 209.246 190.568 209.125 190.86C209.005 191.153 208.826 191.417 208.599 191.638C208.389 191.86 208.136 192.037 207.855 192.157C207.574 192.278 207.272 192.339 206.966 192.338H202.966C202.65 192.339 202.338 192.278 202.046 192.158C201.754 192.038 201.489 191.861 201.266 191.638C201.043 191.415 200.866 191.15 200.746 190.858C200.626 190.566 200.565 190.254 200.566 189.938V186.804H192.499C192.189 186.803 191.882 186.741 191.596 186.62C191.31 186.5 191.051 186.324 190.833 186.102V186.104ZM200.566 222.604V218.604C200.565 218.289 200.626 217.976 200.746 217.684C200.866 217.393 201.043 217.128 201.266 216.904C201.489 216.681 201.754 216.505 202.046 216.384C202.338 216.264 202.65 216.203 202.966 216.204H206.966C207.272 216.204 207.574 216.265 207.855 216.386C208.136 216.506 208.389 216.683 208.599 216.904C208.826 217.125 209.005 217.39 209.125 217.682C209.246 217.974 209.305 218.288 209.299 218.604V228.92C209.301 229.227 209.239 229.532 209.119 229.815C208.998 230.098 208.822 230.353 208.599 230.565C208.39 230.789 208.137 230.967 207.856 231.088C207.575 231.209 207.272 231.272 206.966 231.271H192.499C192.189 231.27 191.881 231.207 191.595 231.086C191.309 230.965 191.05 230.788 190.833 230.565C190.597 230.347 190.41 230.082 190.284 229.787C190.157 229.492 190.095 229.173 190.099 228.852V225.023C190.095 224.702 190.157 224.383 190.284 224.088C190.41 223.793 190.597 223.528 190.833 223.309C191.05 223.087 191.309 222.91 191.595 222.789C191.881 222.668 192.189 222.605 192.499 222.604H200.566ZM282.766 235.404C283.397 235.407 284.023 235.284 284.607 235.043C285.191 234.803 285.721 234.449 286.167 234.002C286.613 233.555 286.967 233.025 287.207 232.441C287.447 231.857 287.569 231.231 287.566 230.599V178.805C287.569 178.174 287.446 177.548 287.206 176.965C286.966 176.381 286.613 175.85 286.167 175.403C285.72 174.957 285.19 174.603 284.606 174.362C284.023 174.121 283.397 173.998 282.766 174H231.032C230.401 173.998 229.775 174.121 229.192 174.362C228.608 174.603 228.078 174.957 227.632 175.403C227.186 175.85 226.832 176.381 226.592 176.965C226.352 177.548 226.23 178.174 226.232 178.805V230.597C226.229 231.228 226.351 231.854 226.592 232.438C226.832 233.022 227.185 233.553 227.631 234C228.077 234.446 228.608 234.8 229.192 235.041C229.775 235.282 230.401 235.404 231.032 235.402H282.765L282.766 235.404ZM249.499 222.604C249.815 222.603 250.128 222.664 250.42 222.784C250.711 222.904 250.977 223.081 251.2 223.304C251.423 223.527 251.6 223.792 251.72 224.084C251.84 224.376 251.901 224.689 251.899 225.004V228.804C251.901 229.12 251.84 229.433 251.719 229.724C251.599 230.016 251.423 230.281 251.199 230.504C250.976 230.728 250.711 230.904 250.419 231.025C250.128 231.145 249.815 231.206 249.499 231.204H237.165C236.85 231.206 236.537 231.145 236.245 231.025C235.954 230.904 235.689 230.728 235.465 230.504C235.242 230.281 235.066 230.016 234.945 229.724C234.825 229.433 234.764 229.12 234.765 228.804V225.004C234.761 224.685 234.824 224.369 234.95 224.076C235.077 223.783 235.264 223.52 235.499 223.304C235.748 223.07 236.042 222.888 236.362 222.768C236.683 222.648 237.024 222.592 237.365 222.604L249.632 181.004C249.679 180.82 249.746 180.641 249.832 180.471C249.867 180.344 249.934 180.227 250.028 180.134C250.121 180.04 250.238 179.973 250.365 179.938C250.577 179.983 250.766 180.101 250.899 180.271C250.938 180.305 250.969 180.346 250.992 180.391C251.015 180.437 251.029 180.487 251.032 180.538L254.299 193.871C254.426 194.236 254.494 194.619 254.499 195.004C254.5 195.217 254.477 195.43 254.432 195.638C254.387 195.838 254.342 196.049 254.299 196.271L247.299 222.605L249.499 222.604ZM254.366 181.131C254.316 180.959 254.294 180.779 254.299 180.599C254.3 180.289 254.363 179.983 254.483 179.698C254.603 179.412 254.779 179.154 254.999 178.936C255.215 178.702 255.478 178.515 255.771 178.389C256.064 178.263 256.38 178.2 256.699 178.204H261.833C262.349 178.199 262.852 178.363 263.266 178.671C263.68 178.971 263.993 179.39 264.166 179.871L276.699 222.604C277.005 222.604 277.308 222.665 277.589 222.786C277.869 222.906 278.123 223.083 278.333 223.304C278.559 223.525 278.738 223.79 278.859 224.082C278.979 224.374 279.038 224.688 279.033 225.004V228.804C279.038 229.121 278.979 229.434 278.858 229.727C278.738 230.019 278.559 230.284 278.333 230.504C278.124 230.726 277.872 230.903 277.592 231.023C277.312 231.144 277.011 231.205 276.706 231.204H262.824C262.509 231.205 262.197 231.144 261.906 231.024C261.614 230.903 261.35 230.726 261.128 230.503C260.905 230.28 260.729 230.015 260.61 229.723C260.491 229.432 260.43 229.12 260.432 228.804V225.004C260.426 224.689 260.484 224.376 260.603 224.084C260.721 223.792 260.898 223.526 261.122 223.304C261.338 223.079 261.597 222.9 261.886 222.779C262.174 222.659 262.484 222.599 262.796 222.604H264.765L263.032 216.004H255.232C254.91 216.017 254.589 215.96 254.29 215.839C253.991 215.717 253.721 215.533 253.499 215.299C253.281 215.072 253.109 214.803 252.995 214.509C252.881 214.214 252.825 213.901 252.832 213.585C252.824 213.381 252.847 213.177 252.899 212.98L253.765 209.619C253.888 209.096 254.186 208.629 254.611 208.299C255.036 207.969 255.561 207.794 256.099 207.804H260.565L254.366 181.131ZM292.099 230.604C292.096 231.236 292.219 231.861 292.459 232.444C292.699 233.028 293.053 233.558 293.499 234.004C293.945 234.451 294.475 234.804 295.059 235.045C295.642 235.285 296.268 235.407 296.899 235.404H348.631C349.262 235.407 349.888 235.285 350.471 235.045C351.055 234.804 351.585 234.451 352.031 234.004C352.478 233.558 352.831 233.028 353.071 232.444C353.312 231.861 353.434 231.236 353.431 230.604V178.869C353.434 178.238 353.312 177.613 353.071 177.029C352.831 176.445 352.478 175.915 352.031 175.469C351.585 175.023 351.055 174.669 350.471 174.429C349.888 174.189 349.262 174.066 348.631 174.069H296.898C296.267 174.066 295.642 174.189 295.058 174.429C294.475 174.669 293.945 175.023 293.498 175.469C293.052 175.915 292.699 176.445 292.458 177.029C292.218 177.613 292.096 178.238 292.098 178.869V230.602L292.099 230.604ZM319.124 177.504C319.174 177.476 319.233 177.464 319.29 177.471C319.577 177.472 319.86 177.534 320.121 177.655C320.381 177.776 320.611 177.952 320.796 178.171C321.202 178.592 321.429 179.153 321.432 179.738V184.938C321.449 185.364 321.36 185.788 321.174 186.171C320.988 186.555 320.71 186.887 320.365 187.138C319.269 188.033 318.401 189.176 317.832 190.471C317.143 191.963 316.628 193.528 316.299 195.138C315.938 196.864 315.693 198.613 315.565 200.371C315.432 202.171 315.365 203.849 315.365 205.404C315.365 206.827 315.421 208.361 315.532 210.004C315.64 211.631 315.874 213.247 316.232 214.838C316.564 216.346 317.067 217.811 317.732 219.204C318.296 220.438 319.155 221.514 320.232 222.338C320.599 222.592 320.9 222.931 321.109 223.325C321.317 223.72 321.428 224.159 321.432 224.605V229.138C321.435 229.439 321.374 229.738 321.253 230.014C321.131 230.289 320.953 230.536 320.729 230.738C320.513 230.951 320.257 231.12 319.976 231.234C319.695 231.349 319.394 231.407 319.09 231.404C318.91 231.41 318.729 231.388 318.555 231.338C315.956 230.671 313.55 229.403 311.529 227.638C309.589 225.899 308 223.806 306.845 221.471C305.598 218.943 304.72 216.249 304.235 213.471C303.691 210.435 303.422 207.356 303.432 204.271C303.418 201.037 303.731 197.809 304.368 194.638C304.92 191.804 305.877 189.064 307.212 186.504C308.405 184.224 310.043 182.207 312.03 180.571C314.031 178.968 316.42 177.921 318.956 177.538C319.014 177.545 319.073 177.532 319.123 177.502L319.124 177.504ZM332.899 180.538C332.893 180.221 332.953 179.907 333.074 179.615C333.196 179.322 333.376 179.058 333.604 178.838C333.827 178.611 334.094 178.432 334.388 178.312C334.683 178.191 334.998 178.132 335.316 178.138H339.681C339.999 178.132 340.315 178.191 340.609 178.312C340.904 178.432 341.17 178.611 341.393 178.838C341.621 179.058 341.802 179.322 341.923 179.615C342.044 179.907 342.104 180.221 342.099 180.538V195.138C342.1 195.454 342.038 195.767 341.917 196.059C341.796 196.352 341.618 196.617 341.394 196.84C341.17 197.063 340.904 197.24 340.612 197.359C340.319 197.479 340.006 197.54 339.689 197.538H334.402C334.081 197.552 333.761 197.493 333.466 197.366C333.17 197.239 332.907 197.047 332.696 196.804C332.255 196.276 331.987 195.624 331.926 194.938C331.74 192.962 331.123 191.051 330.12 189.338C329.675 188.632 329.095 188.02 328.413 187.538C327.766 187.095 327.131 186.683 326.507 186.304C325.943 185.972 325.415 185.581 324.934 185.138C324.721 184.932 324.554 184.682 324.444 184.406C324.335 184.13 324.285 183.834 324.298 183.538V180.204C324.284 179.929 324.337 179.655 324.453 179.405C324.569 179.155 324.745 178.938 324.965 178.771C325.428 178.432 325.991 178.256 326.565 178.271C327.337 178.277 328.09 178.509 328.731 178.938C329.405 179.371 330.031 179.874 330.598 180.438C331.12 180.955 331.599 181.512 332.032 182.105C332.432 182.661 332.721 183.072 332.898 183.338L332.899 180.538ZM324.967 231.369C324.584 231.057 324.324 230.62 324.231 230.135V227.269C324.218 226.445 324.378 225.628 324.699 224.869C325.012 224.158 325.749 223.514 326.909 222.935C327.606 222.636 328.224 222.18 328.715 221.602C329.203 221.029 329.608 220.389 329.919 219.702C330.23 219.016 330.477 218.302 330.655 217.569C330.826 216.877 330.96 216.176 331.058 215.469C331.09 215.203 331.178 214.947 331.316 214.717C331.453 214.488 331.638 214.289 331.858 214.136C332.31 213.823 332.848 213.66 333.397 213.669H339.821C340.149 213.647 340.477 213.712 340.771 213.859C341.065 214.005 341.315 214.227 341.494 214.502C341.854 215.07 342.04 215.731 342.03 216.402V216.869C341.733 219.077 341.066 221.218 340.056 223.202C339.171 224.926 337.993 226.483 336.575 227.802C335.241 229.03 333.701 230.011 332.025 230.702C330.327 231.398 328.534 231.836 326.706 232.002C326.065 232.029 325.44 231.801 324.967 231.369ZM357.967 230.602C357.964 231.234 358.087 231.859 358.327 232.443C358.567 233.026 358.921 233.556 359.367 234.002C359.813 234.449 360.343 234.802 360.927 235.043C361.51 235.283 362.136 235.405 362.767 235.402H414.498C415.129 235.405 415.754 235.283 416.338 235.043C416.921 234.802 417.452 234.449 417.898 234.002C418.344 233.556 418.698 233.026 418.938 232.443C419.178 231.859 419.301 231.234 419.298 230.602V178.869C419.301 178.238 419.178 177.613 418.938 177.029C418.698 176.445 418.344 175.915 417.898 175.469C417.452 175.023 416.921 174.669 416.338 174.429C415.754 174.189 415.129 174.066 414.498 174.069H362.764C362.133 174.066 361.508 174.189 360.924 174.429C360.341 174.669 359.811 175.023 359.364 175.469C358.918 175.915 358.565 176.445 358.324 177.029C358.084 177.613 357.962 178.238 357.964 178.869V230.602H357.967ZM379.331 178.969C379.558 179.189 379.737 179.454 379.857 179.746C379.977 180.039 380.037 180.353 380.031 180.669V184.469C380.032 184.785 379.971 185.097 379.851 185.389C379.731 185.681 379.554 185.946 379.331 186.169C379.108 186.392 378.843 186.569 378.551 186.689C378.259 186.809 377.946 186.87 377.631 186.869H376.964V192.335C376.975 192.639 376.921 192.942 376.806 193.224C376.691 193.505 376.518 193.759 376.298 193.969C376.086 194.175 375.836 194.337 375.561 194.446C375.287 194.554 374.993 194.608 374.698 194.602H370.164C369.869 194.608 369.576 194.555 369.301 194.446C369.026 194.337 368.776 194.175 368.564 193.969C368.344 193.759 368.171 193.505 368.056 193.224C367.941 192.942 367.887 192.639 367.898 192.335V180.535C367.9 179.935 368.14 179.36 368.564 178.935C368.989 178.511 369.564 178.271 370.164 178.269H377.631C377.947 178.263 378.261 178.322 378.553 178.443C378.846 178.563 379.11 178.742 379.331 178.969ZM393.664 178.969C393.891 179.19 394.07 179.454 394.19 179.747C394.311 180.039 394.37 180.353 394.364 180.669V222.669H396.764C397.065 222.666 397.364 222.727 397.639 222.848C397.915 222.968 398.162 223.146 398.364 223.369C398.578 223.584 398.746 223.839 398.861 224.119C398.975 224.399 399.033 224.699 399.031 225.002V228.935C399.029 229.536 398.789 230.111 398.364 230.536C397.94 230.96 397.365 231.2 396.764 231.202H380.498C379.877 231.203 379.28 230.964 378.831 230.535C378.6 230.338 378.414 230.093 378.287 229.817C378.161 229.54 378.096 229.239 378.098 228.935V225.002C378.098 224.694 378.164 224.389 378.29 224.107C378.416 223.826 378.601 223.574 378.831 223.369C379.049 223.148 379.308 222.972 379.594 222.852C379.88 222.732 380.188 222.67 380.498 222.669H382.898V180.669C382.897 180.353 382.958 180.041 383.078 179.749C383.198 179.457 383.375 179.192 383.598 178.969C383.821 178.746 384.086 178.569 384.378 178.449C384.67 178.329 384.982 178.268 385.298 178.269H391.964C392.281 178.263 392.595 178.322 392.887 178.443C393.179 178.563 393.444 178.742 393.664 178.969ZM400.231 186.869H399.631C399.315 186.87 399.003 186.809 398.711 186.689C398.419 186.569 398.154 186.392 397.931 186.169C397.708 185.946 397.531 185.681 397.411 185.389C397.291 185.097 397.23 184.785 397.231 184.469V180.669C397.23 180.353 397.291 180.041 397.411 179.749C397.531 179.457 397.708 179.192 397.931 178.969C398.154 178.746 398.419 178.569 398.711 178.449C399.003 178.329 399.315 178.268 399.631 178.269H407.031C407.334 178.267 407.634 178.325 407.914 178.439C408.194 178.554 408.449 178.722 408.664 178.935C408.887 179.138 409.065 179.385 409.186 179.661C409.306 179.936 409.367 180.235 409.364 180.535V192.335C409.374 192.642 409.316 192.948 409.195 193.23C409.074 193.512 408.893 193.764 408.664 193.969C408.222 194.382 407.637 194.609 407.031 194.602H402.564C401.959 194.609 401.374 194.382 400.931 193.969C400.702 193.764 400.521 193.512 400.4 193.23C400.279 192.948 400.221 192.642 400.231 192.335V186.869Z" fill="#212121"/>
<path fill-rule="evenodd" clip-rule="evenodd" d="M160.435 310.671C160.432 311.302 160.554 311.927 160.795 312.511C161.035 313.095 161.388 313.625 161.835 314.071C162.281 314.517 162.811 314.871 163.395 315.111C163.978 315.351 164.604 315.474 165.235 315.471H216.969C217.6 315.474 218.226 315.351 218.809 315.111C219.393 314.871 219.923 314.517 220.369 314.071C220.815 313.625 221.169 313.095 221.409 312.511C221.65 311.927 221.772 311.302 221.769 310.671V258.936C221.772 258.304 221.65 257.679 221.409 257.096C221.169 256.512 220.815 255.982 220.369 255.535C219.923 255.089 219.393 254.736 218.809 254.496C218.226 254.255 217.6 254.133 216.969 254.135H165.236C164.605 254.133 163.98 254.255 163.396 254.496C162.813 254.736 162.282 255.089 161.836 255.535C161.39 255.982 161.036 256.512 160.796 257.096C160.556 257.679 160.434 258.304 160.436 258.936V310.669L160.435 310.671ZM188.435 257.338C188.628 257.39 188.81 257.481 188.968 257.605C189.173 257.77 189.343 257.974 189.468 258.204C189.638 258.534 189.719 258.902 189.702 259.272V264.138C189.715 264.434 189.666 264.73 189.556 265.006C189.447 265.282 189.281 265.531 189.068 265.738C188.645 266.138 188.19 266.549 187.702 266.971C187.191 267.418 186.732 267.921 186.335 268.471C185.886 269.14 185.664 269.934 185.702 270.738C185.682 271.556 185.817 272.371 186.102 273.138C186.459 273.919 187.01 274.596 187.702 275.105C188.758 275.914 189.885 276.628 191.068 277.238C192.512 278.016 194.412 278.961 196.768 280.072C198.59 280.961 200.19 281.828 201.568 282.672C202.881 283.46 204.053 284.463 205.035 285.638C206.012 286.857 206.727 288.264 207.135 289.772C207.644 291.741 207.879 293.771 207.835 295.805C207.881 298.183 207.566 300.554 206.902 302.838C206.368 304.651 205.46 306.332 204.235 307.772C203.091 309.074 201.666 310.099 200.068 310.772C198.317 311.489 196.458 311.906 194.568 312.005C194.03 312.019 193.506 311.828 193.102 311.471C192.9 311.286 192.742 311.059 192.638 310.805C192.534 310.551 192.488 310.278 192.502 310.005V305.272C192.488 304.978 192.534 304.685 192.637 304.41C192.74 304.135 192.898 303.883 193.102 303.672L194.502 302.272C195.025 301.738 195.484 301.145 195.868 300.505C196.329 299.658 196.548 298.701 196.502 297.738C196.522 296.844 196.386 295.953 196.102 295.105C195.763 294.276 195.211 293.551 194.502 293.005C193.471 292.194 192.353 291.501 191.168 290.939C189.745 290.228 187.901 289.384 185.635 288.405C184.263 287.831 182.927 287.174 181.635 286.439C180.354 285.713 179.196 284.79 178.202 283.705C177.15 282.533 176.325 281.177 175.768 279.705C175.1 277.858 174.783 275.902 174.835 273.939C174.835 268.295 175.957 264.128 178.202 261.439C180.446 258.749 183.791 257.36 188.235 257.272L188.435 257.338ZM189.102 303.671C189.305 303.883 189.463 304.134 189.566 304.409C189.67 304.684 189.716 304.978 189.702 305.271V308.605C189.683 309.182 189.444 309.73 189.035 310.138C188.867 310.353 188.656 310.529 188.414 310.656C188.173 310.783 187.907 310.856 187.635 310.871C187.012 310.871 186.312 310.438 185.535 309.571C184.786 308.748 184.167 307.815 183.702 306.804H183.436V308.804C183.451 309.431 183.224 310.04 182.803 310.504C182.598 310.733 182.346 310.914 182.064 311.035C181.781 311.156 181.476 311.214 181.169 311.204H176.636C176.341 311.2 176.05 311.136 175.78 311.016C175.511 310.895 175.269 310.721 175.069 310.504C174.843 310.283 174.664 310.019 174.543 309.727C174.423 309.434 174.364 309.12 174.369 308.804V295.869C174.364 295.553 174.423 295.239 174.543 294.947C174.664 294.654 174.843 294.39 175.069 294.169C175.269 293.952 175.511 293.778 175.78 293.657C176.05 293.537 176.341 293.473 176.636 293.469H181.769C182.094 293.447 182.419 293.506 182.715 293.64C183.012 293.773 183.271 293.978 183.469 294.236C183.857 294.776 184.099 295.408 184.169 296.069C184.342 297.42 184.655 298.749 185.103 300.036C185.556 301.182 186.442 302.104 187.569 302.603C188.134 302.873 188.652 303.234 189.103 303.669L189.102 303.671ZM198.168 260.471C198.158 260.167 198.212 259.864 198.326 259.583C198.441 259.301 198.615 259.047 198.835 258.838C199.046 258.632 199.297 258.47 199.571 258.361C199.846 258.252 200.139 258.199 200.435 258.204H204.568C205.195 258.189 205.804 258.416 206.268 258.838C206.497 259.042 206.679 259.294 206.8 259.577C206.92 259.859 206.978 260.164 206.968 260.471V272.204C206.969 272.52 206.908 272.832 206.788 273.124C206.668 273.416 206.491 273.681 206.268 273.904C206.045 274.127 205.78 274.304 205.488 274.424C205.196 274.544 204.884 274.605 204.568 274.604H200.168C199.846 274.616 199.525 274.56 199.227 274.44C198.928 274.319 198.658 274.136 198.435 273.904C197.973 273.398 197.691 272.754 197.635 272.071C197.527 270.959 197.222 269.876 196.735 268.871C196.26 267.929 195.502 267.16 194.568 266.671C194.015 266.369 193.509 265.987 193.068 265.538C192.676 265.099 192.472 264.525 192.501 263.938V261.138C192.503 260.847 192.567 260.56 192.688 260.296C192.808 260.032 192.983 259.796 193.201 259.605C193.573 259.203 194.088 258.963 194.634 258.938C195.256 258.938 195.89 259.304 196.534 260.038C197.136 260.708 197.641 261.46 198.034 262.271L198.168 260.471ZM226.301 310.605C226.299 311.236 226.421 311.861 226.661 312.445C226.901 313.028 227.255 313.558 227.701 314.005C228.147 314.451 228.678 314.804 229.261 315.045C229.845 315.285 230.47 315.407 231.101 315.405H282.835C283.466 315.407 284.092 315.285 284.675 315.045C285.259 314.804 285.789 314.451 286.235 314.005C286.681 313.558 287.035 313.028 287.275 312.445C287.516 311.861 287.638 311.236 287.635 310.605V258.869C287.638 258.238 287.516 257.613 287.275 257.029C287.035 256.445 286.681 255.915 286.235 255.469C285.789 255.023 285.259 254.669 284.675 254.429C284.092 254.189 283.466 254.066 282.835 254.069H231.102C230.471 254.066 229.846 254.189 229.262 254.429C228.679 254.669 228.148 255.023 227.702 255.469C227.256 255.915 226.903 256.445 226.662 257.029C226.422 257.613 226.3 258.238 226.302 258.869V310.603L226.301 310.605ZM253.668 258.971C253.894 259.192 254.073 259.456 254.194 259.749C254.314 260.041 254.373 260.355 254.368 260.671V302.671H257.234C257.55 302.665 257.864 302.724 258.157 302.845C258.449 302.965 258.714 303.144 258.934 303.371C259.156 303.581 259.333 303.834 259.453 304.115C259.574 304.396 259.635 304.698 259.634 305.004V308.871C259.635 309.177 259.574 309.479 259.453 309.76C259.333 310.041 259.156 310.294 258.934 310.504C258.714 310.731 258.449 310.91 258.157 311.03C257.864 311.151 257.55 311.21 257.234 311.204H241.769C241.453 311.21 241.139 311.151 240.846 311.03C240.554 310.91 240.289 310.731 240.069 310.504C239.847 310.294 239.67 310.041 239.55 309.76C239.429 309.479 239.368 309.177 239.369 308.871V305.004C239.368 304.698 239.429 304.396 239.55 304.115C239.67 303.834 239.847 303.581 240.069 303.371C240.289 303.144 240.554 302.965 240.846 302.845C241.139 302.724 241.453 302.665 241.769 302.671H243.302V266.871H241.769C241.45 266.876 241.133 266.813 240.84 266.686C240.547 266.56 240.284 266.373 240.069 266.138C239.848 265.92 239.672 265.66 239.552 265.374C239.432 265.088 239.37 264.781 239.369 264.471V260.605C239.368 260.299 239.429 259.996 239.55 259.715C239.67 259.434 239.847 259.181 240.069 258.971C240.289 258.744 240.554 258.565 240.846 258.445C241.139 258.324 241.453 258.265 241.769 258.271H251.969C252.285 258.265 252.599 258.324 252.891 258.444C253.183 258.564 253.448 258.743 253.669 258.969L253.668 258.971ZM257.968 283.786C258.507 283.339 259.148 283.03 259.834 282.887C260.545 282.755 261.214 282.454 261.783 282.008C262.352 281.562 262.804 280.984 263.101 280.325C263.723 278.973 264.034 276.966 264.034 274.303C264.034 271.863 263.634 270.078 262.834 268.948C262.403 268.368 261.852 267.887 261.22 267.537C260.588 267.187 259.888 266.976 259.168 266.918C258.628 266.851 258.131 266.591 257.768 266.187C257.41 265.784 257.22 265.261 257.234 264.723V260.664C257.233 260.348 257.295 260.036 257.415 259.745C257.536 259.454 257.713 259.189 257.936 258.967C258.159 258.744 258.424 258.568 258.715 258.448C259.007 258.328 259.319 258.267 259.634 258.269H261.901C263.842 258.238 265.765 258.636 267.534 259.434C269.185 260.198 270.635 261.337 271.768 262.76C272.99 264.334 273.896 266.13 274.434 268.049C275.082 270.32 275.396 272.674 275.368 275.036C275.425 277.633 275.087 280.224 274.368 282.72C273.808 284.638 272.816 286.403 271.468 287.877C270.178 289.223 268.574 290.229 266.801 290.805C264.788 291.451 262.682 291.765 260.568 291.736H259.634C259.319 291.737 259.007 291.677 258.715 291.557C258.423 291.437 258.158 291.261 257.935 291.038C257.712 290.816 257.535 290.551 257.415 290.26C257.295 289.969 257.233 289.656 257.234 289.341V285.548C257.216 285.218 257.273 284.888 257.4 284.583C257.528 284.277 257.722 284.004 257.969 283.785L257.968 283.786ZM348.7 315.404C349.332 315.406 349.957 315.284 350.541 315.043C351.125 314.802 351.655 314.448 352.101 314.002C352.547 313.555 352.901 313.024 353.141 312.44C353.381 311.856 353.503 311.23 353.5 310.599V258.806C353.503 258.174 353.381 257.548 353.14 256.965C352.9 256.381 352.547 255.85 352.101 255.403C351.654 254.957 351.124 254.603 350.541 254.362C349.957 254.121 349.332 253.998 348.7 254H296.968C296.337 253.998 295.711 254.121 295.128 254.362C294.544 254.603 294.014 254.957 293.568 255.403C293.121 255.85 292.768 256.381 292.528 256.965C292.288 257.548 292.165 258.174 292.168 258.806V310.597C292.165 311.228 292.287 311.854 292.527 312.438C292.767 313.022 293.121 313.553 293.567 314C294.013 314.446 294.544 314.8 295.127 315.041C295.711 315.282 296.337 315.404 296.968 315.402H348.701L348.7 315.404ZM315.434 302.604C315.749 302.603 316.062 302.664 316.354 302.784C316.646 302.904 316.911 303.081 317.134 303.304C317.357 303.527 317.534 303.792 317.654 304.084C317.774 304.376 317.835 304.688 317.834 305.004V308.804C317.835 309.12 317.774 309.432 317.654 309.724C317.534 310.016 317.357 310.281 317.134 310.504C316.911 310.727 316.645 310.904 316.354 311.024C316.062 311.144 315.749 311.205 315.434 311.204H303.102C302.786 311.205 302.474 311.144 302.182 311.024C301.89 310.904 301.625 310.727 301.402 310.504C301.179 310.281 301.002 310.016 300.882 309.724C300.762 309.432 300.701 309.12 300.702 308.804V305.004C300.697 304.685 300.76 304.369 300.886 304.076C301.013 303.782 301.2 303.52 301.435 303.304C301.685 303.07 301.978 302.888 302.299 302.767C302.619 302.647 302.96 302.592 303.302 302.604L315.569 261.004C315.615 260.819 315.682 260.641 315.769 260.471C315.803 260.343 315.871 260.227 315.964 260.133C316.058 260.04 316.174 259.972 316.302 259.938C316.513 259.982 316.702 260.1 316.835 260.271C316.874 260.304 316.906 260.345 316.929 260.391C316.952 260.437 316.965 260.486 316.969 260.538L320.235 273.871C320.362 274.235 320.43 274.618 320.435 275.004C320.436 275.217 320.414 275.429 320.369 275.638C320.324 275.838 320.279 276.049 320.235 276.271L313.235 302.605H315.435L315.434 302.604ZM320.3 261.131C320.25 260.958 320.228 260.778 320.234 260.599C320.235 260.289 320.297 259.982 320.417 259.697C320.537 259.412 320.713 259.153 320.934 258.936C321.15 258.701 321.413 258.515 321.706 258.388C321.999 258.262 322.315 258.199 322.634 258.204H327.767C328.283 258.198 328.787 258.362 329.201 258.671C329.614 258.971 329.928 259.389 330.101 259.871L342.634 302.604C342.939 302.603 343.242 302.665 343.523 302.785C343.804 302.905 344.057 303.082 344.267 303.304C344.494 303.525 344.673 303.789 344.793 304.082C344.914 304.374 344.973 304.688 344.967 305.004V308.804C344.972 309.12 344.913 309.434 344.793 309.726C344.672 310.019 344.494 310.283 344.267 310.504C344.058 310.726 343.806 310.903 343.526 311.023C343.247 311.143 342.945 311.205 342.64 311.204H328.76C328.445 311.205 328.133 311.143 327.842 311.023C327.55 310.903 327.286 310.726 327.064 310.502C326.841 310.279 326.665 310.014 326.546 309.723C326.427 309.431 326.366 309.119 326.368 308.804V305.004C326.362 304.689 326.42 304.375 326.539 304.083C326.657 303.791 326.834 303.526 327.058 303.304C327.273 303.078 327.533 302.899 327.821 302.779C328.11 302.658 328.419 302.599 328.732 302.604H330.702L328.968 296.004H321.168C320.846 296.016 320.524 295.96 320.226 295.838C319.927 295.717 319.657 295.533 319.435 295.299C318.994 294.838 318.754 294.222 318.768 293.585C318.76 293.381 318.783 293.177 318.835 292.98L319.701 289.619C319.824 289.095 320.122 288.629 320.547 288.299C320.972 287.968 321.497 287.794 322.035 287.804H326.502L320.3 261.131Z" stroke="#212121" stroke-width="0.5"/>
<path fill-rule="evenodd" clip-rule="evenodd" d="M151.033 235.535C151.665 235.538 152.29 235.416 152.873 235.176C153.457 234.935 153.987 234.582 154.433 234.136C154.88 233.689 155.233 233.159 155.473 232.575C155.714 231.992 155.836 231.367 155.833 230.735V179.002C155.836 178.371 155.713 177.746 155.473 177.162C155.233 176.579 154.879 176.048 154.433 175.602C153.987 175.156 153.457 174.803 152.873 174.562C152.29 174.322 151.664 174.199 151.033 174.202H99.2999C98.6689 174.199 98.0436 174.322 97.4601 174.562C96.8766 174.803 96.3464 175.156 95.9002 175.602C95.454 176.048 95.1005 176.579 94.8602 177.162C94.6198 177.746 94.4974 178.371 94.4999 179.002V230.735C94.4973 231.367 94.6196 231.992 94.8599 232.575C95.1002 233.159 95.4537 233.689 95.8999 234.136C96.3462 234.582 96.8764 234.935 97.4599 235.176C98.0435 235.416 98.6688 235.538 99.2999 235.535H151.033ZM119.93 179.002C120.152 179.22 120.328 179.479 120.449 179.765C120.569 180.051 120.632 180.358 120.633 180.669V222.669H122.3C122.616 222.663 122.93 222.722 123.222 222.843C123.515 222.963 123.779 223.142 124 223.369C124.222 223.579 124.399 223.832 124.519 224.113C124.639 224.394 124.701 224.696 124.7 225.002V228.869C124.701 229.175 124.639 229.478 124.518 229.759C124.397 230.039 124.22 230.292 123.997 230.502C123.775 230.729 123.51 230.908 123.217 231.028C122.924 231.149 122.609 231.208 122.292 231.202H107.975C107.658 231.208 107.343 231.149 107.05 231.028C106.756 230.908 106.491 230.729 106.269 230.502C106.047 230.292 105.87 230.039 105.749 229.758C105.629 229.477 105.568 229.175 105.569 228.869V225.002C105.568 224.695 105.631 224.392 105.754 224.111C105.876 223.83 106.055 223.577 106.28 223.369C106.506 223.142 106.776 222.962 107.073 222.842C107.37 222.722 107.689 222.663 108.009 222.669H109.569V186.869H108.009C107.371 186.862 106.761 186.608 106.306 186.161C105.851 185.713 105.587 185.107 105.569 184.469V180.602C105.568 180.297 105.63 179.994 105.751 179.713C105.872 179.432 106.049 179.179 106.272 178.969C106.494 178.742 106.76 178.563 107.053 178.443C107.347 178.322 107.662 178.263 107.979 178.269H118.225C118.545 178.265 118.862 178.328 119.156 178.454C119.449 178.58 119.713 178.767 119.93 179.002ZM123.433 202.869C123.447 202.592 123.515 202.32 123.633 202.069C123.713 201.907 123.836 201.771 123.99 201.677C124.143 201.583 124.32 201.534 124.5 201.535C125.097 201.472 125.688 201.36 126.267 201.202C127.004 200.999 127.687 200.635 128.267 200.135C128.987 199.496 129.546 198.697 129.9 197.802C130.393 196.505 130.619 195.122 130.567 193.735C130.567 191.469 130.167 189.813 129.367 188.769C128.567 187.725 127.345 187.113 125.7 186.935C125.094 186.856 124.538 186.56 124.133 186.102C123.72 185.66 123.493 185.075 123.5 184.469V180.669C123.501 180.359 123.563 180.052 123.683 179.766C123.804 179.479 123.979 179.22 124.2 179.002C124.416 178.767 124.679 178.58 124.972 178.454C125.265 178.328 125.581 178.265 125.9 178.269H128.633C132.9 178.269 136.133 179.358 138.333 181.535C140.533 183.713 141.633 187.269 141.633 192.202C141.633 196.38 140.822 199.48 139.2 201.502C137.578 203.524 135.167 204.846 131.967 205.469V205.802C132.992 205.903 134.007 206.092 135 206.369C135.787 206.593 136.507 207.005 137.1 207.569C137.733 208.208 138.232 208.967 138.567 209.802C139.031 210.944 139.388 212.127 139.633 213.335L141.633 222.669H142.833C143.15 222.663 143.464 222.722 143.756 222.843C144.048 222.963 144.313 223.142 144.533 223.369C144.755 223.579 144.932 223.832 145.052 224.113C145.173 224.394 145.234 224.696 145.233 225.002V228.869C145.234 229.175 145.173 229.477 145.052 229.758C144.932 230.039 144.755 230.292 144.533 230.502C144.313 230.729 144.048 230.908 143.756 231.028C143.464 231.149 143.15 231.208 142.833 231.202H135.7C134.729 231.218 133.78 230.914 133 230.335C132.229 229.769 131.695 228.938 131.5 228.002L128.167 215.269C127.81 214.069 127.477 213.047 127.167 212.202C126.919 211.442 126.427 210.786 125.767 210.335C125.196 209.976 124.66 209.563 124.167 209.102C123.938 208.871 123.76 208.594 123.645 208.29C123.53 207.986 123.481 207.66 123.5 207.335L123.433 202.869ZM216.899 235.469C217.531 235.472 218.156 235.349 218.739 235.109C219.323 234.869 219.853 234.515 220.299 234.069C220.746 233.623 221.099 233.093 221.339 232.509C221.58 231.925 221.702 231.3 221.699 230.669V178.935C221.702 178.304 221.58 177.679 221.339 177.095C221.099 176.512 220.746 175.982 220.299 175.535C219.853 175.089 219.323 174.736 218.739 174.495C218.156 174.255 217.531 174.133 216.899 174.135H165.166C164.535 174.133 163.91 174.255 163.326 174.495C162.743 174.736 162.213 175.089 161.766 175.535C161.32 175.982 160.967 176.512 160.726 177.095C160.486 177.679 160.364 178.304 160.366 178.935V230.669C160.364 231.3 160.486 231.925 160.726 232.509C160.967 233.093 161.32 233.623 161.766 234.069C162.213 234.515 162.743 234.869 163.326 235.109C163.91 235.349 164.535 235.472 165.166 235.469H216.899ZM186.533 178.905C186.759 179.126 186.938 179.391 187.058 179.683C187.179 179.976 187.238 180.289 187.233 180.605V228.866C187.234 229.182 187.173 229.495 187.053 229.787C186.933 230.079 186.757 230.344 186.534 230.568C186.31 230.791 186.045 230.968 185.753 231.088C185.461 231.209 185.149 231.27 184.833 231.269H175.099C174.783 231.274 174.468 231.215 174.176 231.093C173.884 230.972 173.619 230.791 173.399 230.563C173.173 230.34 172.993 230.073 172.873 229.779C172.753 229.484 172.694 229.168 172.699 228.85V225.021C172.694 224.703 172.753 224.387 172.873 224.092C172.993 223.798 173.173 223.531 173.399 223.307C173.619 223.08 173.884 222.899 174.176 222.778C174.469 222.657 174.783 222.597 175.099 222.602H176.633V186.802H175.099C174.784 186.804 174.471 186.743 174.179 186.623C173.887 186.503 173.622 186.326 173.399 186.103C173.176 185.88 172.999 185.614 172.879 185.323C172.759 185.031 172.698 184.718 172.699 184.402V180.535C172.699 180.23 172.76 179.927 172.881 179.646C173.001 179.365 173.178 179.112 173.399 178.902C173.62 178.675 173.885 178.496 174.177 178.376C174.469 178.256 174.783 178.196 175.099 178.202H184.833C185.149 178.197 185.463 178.257 185.756 178.378C186.048 178.499 186.313 178.678 186.533 178.905ZM190.833 200.837C191.051 200.617 191.31 200.441 191.596 200.321C191.882 200.201 192.189 200.138 192.499 200.137H193.766V198.004C193.765 197.698 193.827 197.396 193.947 197.115C194.067 196.834 194.244 196.581 194.466 196.371C194.686 196.144 194.951 195.965 195.243 195.845C195.536 195.725 195.85 195.665 196.166 195.671H198.232C198.549 195.665 198.863 195.725 199.155 195.845C199.447 195.965 199.712 196.144 199.932 196.371C200.154 196.581 200.331 196.834 200.451 197.115C200.572 197.396 200.633 197.698 200.632 198.004V210.271C200.634 210.587 200.573 210.899 200.452 211.191C200.332 211.483 200.156 211.748 199.932 211.971C199.709 212.194 199.444 212.371 199.152 212.491C198.861 212.611 198.548 212.672 198.232 212.671H196.166C195.85 212.672 195.538 212.611 195.246 212.491C194.954 212.371 194.689 212.194 194.466 211.971C194.243 211.748 194.066 211.483 193.946 211.191C193.826 210.899 193.765 210.587 193.766 210.271V208.271H192.499C192.189 208.27 191.882 208.208 191.596 208.088C191.31 207.967 191.051 207.792 190.833 207.571C190.598 207.355 190.411 207.093 190.284 206.8C190.158 206.507 190.095 206.19 190.099 205.871V202.535C190.095 202.216 190.158 201.9 190.284 201.607C190.411 201.314 190.598 201.051 190.833 200.835V200.837ZM190.833 186.104C190.598 185.889 190.411 185.626 190.284 185.333C190.158 185.04 190.095 184.724 190.099 184.404V180.604C190.095 180.285 190.158 179.969 190.284 179.676C190.411 179.383 190.598 179.12 190.833 178.904C191.051 178.684 191.31 178.508 191.596 178.388C191.882 178.268 192.189 178.205 192.499 178.204H206.966C207.58 178.219 208.165 178.47 208.599 178.905C209.034 179.339 209.284 179.924 209.299 180.538V189.938C209.305 190.254 209.246 190.568 209.125 190.86C209.005 191.153 208.826 191.417 208.599 191.638C208.389 191.86 208.136 192.037 207.855 192.157C207.574 192.278 207.272 192.339 206.966 192.338H202.966C202.65 192.339 202.338 192.278 202.046 192.158C201.754 192.038 201.489 191.861 201.266 191.638C201.043 191.415 200.866 191.15 200.746 190.858C200.626 190.566 200.565 190.254 200.566 189.938V186.804H192.499C192.189 186.803 191.882 186.741 191.596 186.62C191.31 186.5 191.051 186.324 190.833 186.102V186.104ZM200.566 222.604V218.604C200.565 218.289 200.626 217.976 200.746 217.684C200.866 217.393 201.043 217.128 201.266 216.904C201.489 216.681 201.754 216.505 202.046 216.384C202.338 216.264 202.65 216.203 202.966 216.204H206.966C207.272 216.204 207.574 216.265 207.855 216.386C208.136 216.506 208.389 216.683 208.599 216.904C208.826 217.125 209.005 217.39 209.125 217.682C209.246 217.974 209.305 218.288 209.299 218.604V228.92C209.301 229.227 209.239 229.532 209.119 229.815C208.998 230.098 208.822 230.353 208.599 230.565C208.39 230.789 208.137 230.967 207.856 231.088C207.575 231.209 207.272 231.272 206.966 231.271H192.499C192.189 231.27 191.881 231.207 191.595 231.086C191.309 230.965 191.05 230.788 190.833 230.565C190.597 230.347 190.41 230.082 190.284 229.787C190.157 229.492 190.095 229.173 190.099 228.852V225.023C190.095 224.702 190.157 224.383 190.284 224.088C190.41 223.793 190.597 223.528 190.833 223.309C191.05 223.087 191.309 222.91 191.595 222.789C191.881 222.668 192.189 222.605 192.499 222.604H200.566ZM282.766 235.404C283.397 235.407 284.023 235.284 284.607 235.043C285.191 234.803 285.721 234.449 286.167 234.002C286.613 233.555 286.967 233.025 287.207 232.441C287.447 231.857 287.569 231.231 287.566 230.599V178.805C287.569 178.174 287.446 177.548 287.206 176.965C286.966 176.381 286.613 175.85 286.167 175.403C285.72 174.957 285.19 174.603 284.606 174.362C284.023 174.121 283.397 173.998 282.766 174H231.032C230.401 173.998 229.775 174.121 229.192 174.362C228.608 174.603 228.078 174.957 227.632 175.403C227.186 175.85 226.832 176.381 226.592 176.965C226.352 177.548 226.23 178.174 226.232 178.805V230.597C226.229 231.228 226.351 231.854 226.592 232.438C226.832 233.022 227.185 233.553 227.631 234C228.077 234.446 228.608 234.8 229.192 235.041C229.775 235.282 230.401 235.404 231.032 235.402H282.765L282.766 235.404ZM249.499 222.604C249.815 222.603 250.128 222.664 250.42 222.784C250.711 222.904 250.977 223.081 251.2 223.304C251.423 223.527 251.6 223.792 251.72 224.084C251.84 224.376 251.901 224.689 251.899 225.004V228.804C251.901 229.12 251.84 229.433 251.719 229.724C251.599 230.016 251.423 230.281 251.199 230.504C250.976 230.728 250.711 230.904 250.419 231.025C250.128 231.145 249.815 231.206 249.499 231.204H237.165C236.85 231.206 236.537 231.145 236.245 231.025C235.954 230.904 235.689 230.728 235.465 230.504C235.242 230.281 235.066 230.016 234.945 229.724C234.825 229.433 234.764 229.12 234.765 228.804V225.004C234.761 224.685 234.824 224.369 234.95 224.076C235.077 223.783 235.264 223.52 235.499 223.304C235.748 223.07 236.042 222.888 236.362 222.768C236.683 222.648 237.024 222.592 237.365 222.604L249.632 181.004C249.679 180.82 249.746 180.641 249.832 180.471C249.867 180.344 249.934 180.227 250.028 180.134C250.121 180.04 250.238 179.973 250.365 179.938C250.577 179.983 250.766 180.101 250.899 180.271C250.938 180.305 250.969 180.346 250.992 180.391C251.015 180.437 251.029 180.487 251.032 180.538L254.299 193.871C254.426 194.236 254.494 194.619 254.499 195.004C254.5 195.217 254.477 195.43 254.432 195.638C254.387 195.838 254.342 196.049 254.299 196.271L247.299 222.605L249.499 222.604ZM254.366 181.131C254.316 180.959 254.294 180.779 254.299 180.599C254.3 180.289 254.363 179.983 254.483 179.698C254.603 179.412 254.779 179.154 254.999 178.936C255.215 178.702 255.478 178.515 255.771 178.389C256.064 178.263 256.38 178.2 256.699 178.204H261.833C262.349 178.199 262.852 178.363 263.266 178.671C263.68 178.971 263.993 179.39 264.166 179.871L276.699 222.604C277.005 222.604 277.308 222.665 277.589 222.786C277.869 222.906 278.123 223.083 278.333 223.304C278.559 223.525 278.738 223.79 278.859 224.082C278.979 224.374 279.038 224.688 279.033 225.004V228.804C279.038 229.121 278.979 229.434 278.858 229.727C278.738 230.019 278.559 230.284 278.333 230.504C278.124 230.726 277.872 230.903 277.592 231.023C277.312 231.144 277.011 231.205 276.706 231.204H262.824C262.509 231.205 262.197 231.144 261.906 231.024C261.614 230.903 261.35 230.726 261.128 230.503C260.905 230.28 260.729 230.015 260.61 229.723C260.491 229.432 260.43 229.12 260.432 228.804V225.004C260.426 224.689 260.484 224.376 260.603 224.084C260.721 223.792 260.898 223.526 261.122 223.304C261.338 223.079 261.597 222.9 261.886 222.779C262.174 222.659 262.484 222.599 262.796 222.604H264.765L263.032 216.004H255.232C254.91 216.017 254.589 215.96 254.29 215.839C253.991 215.717 253.721 215.533 253.499 215.299C253.281 215.072 253.109 214.803 252.995 214.509C252.881 214.214 252.825 213.901 252.832 213.585C252.824 213.381 252.847 213.177 252.899 212.98L253.765 209.619C253.888 209.096 254.186 208.629 254.611 208.299C255.036 207.969 255.561 207.794 256.099 207.804H260.565L254.366 181.131ZM292.099 230.604C292.096 231.236 292.219 231.861 292.459 232.444C292.699 233.028 293.053 233.558 293.499 234.004C293.945 234.451 294.475 234.804 295.059 235.045C295.642 235.285 296.268 235.407 296.899 235.404H348.631C349.262 235.407 349.888 235.285 350.471 235.045C351.055 234.804 351.585 234.451 352.031 234.004C352.478 233.558 352.831 233.028 353.071 232.444C353.312 231.861 353.434 231.236 353.431 230.604V178.869C353.434 178.238 353.312 177.613 353.071 177.029C352.831 176.445 352.478 175.915 352.031 175.469C351.585 175.023 351.055 174.669 350.471 174.429C349.888 174.189 349.262 174.066 348.631 174.069H296.898C296.267 174.066 295.642 174.189 295.058 174.429C294.475 174.669 293.945 175.023 293.498 175.469C293.052 175.915 292.699 176.445 292.458 177.029C292.218 177.613 292.096 178.238 292.098 178.869V230.602L292.099 230.604ZM319.124 177.504C319.174 177.476 319.233 177.464 319.29 177.471C319.577 177.472 319.86 177.534 320.121 177.655C320.381 177.776 320.611 177.952 320.796 178.171C321.202 178.592 321.429 179.153 321.432 179.738V184.938C321.449 185.364 321.36 185.788 321.174 186.171C320.988 186.555 320.71 186.887 320.365 187.138C319.269 188.033 318.401 189.176 317.832 190.471C317.143 191.963 316.628 193.528 316.299 195.138C315.938 196.864 315.693 198.613 315.565 200.371C315.432 202.171 315.365 203.849 315.365 205.404C315.365 206.827 315.421 208.361 315.532 210.004C315.64 211.631 315.874 213.247 316.232 214.838C316.564 216.346 317.067 217.811 317.732 219.204C318.296 220.438 319.155 221.514 320.232 222.338C320.599 222.592 320.9 222.931 321.109 223.325C321.317 223.72 321.428 224.159 321.432 224.605V229.138C321.435 229.439 321.374 229.738 321.253 230.014C321.131 230.289 320.953 230.536 320.729 230.738C320.513 230.951 320.257 231.12 319.976 231.234C319.695 231.349 319.394 231.407 319.09 231.404C318.91 231.41 318.729 231.388 318.555 231.338C315.956 230.671 313.55 229.403 311.529 227.638C309.589 225.899 308 223.806 306.845 221.471C305.598 218.943 304.72 216.249 304.235 213.471C303.691 210.435 303.422 207.356 303.432 204.271C303.418 201.037 303.731 197.809 304.368 194.638C304.92 191.804 305.877 189.064 307.212 186.504C308.405 184.224 310.043 182.207 312.03 180.571C314.031 178.968 316.42 177.921 318.956 177.538C319.014 177.545 319.073 177.532 319.123 177.502L319.124 177.504ZM332.899 180.538C332.893 180.221 332.953 179.907 333.074 179.615C333.196 179.322 333.376 179.058 333.604 178.838C333.827 178.611 334.094 178.432 334.388 178.312C334.683 178.191 334.998 178.132 335.316 178.138H339.681C339.999 178.132 340.315 178.191 340.609 178.312C340.904 178.432 341.17 178.611 341.393 178.838C341.621 179.058 341.802 179.322 341.923 179.615C342.044 179.907 342.104 180.221 342.099 180.538V195.138C342.1 195.454 342.038 195.767 341.917 196.059C341.796 196.352 341.618 196.617 341.394 196.84C341.17 197.063 340.904 197.24 340.612 197.359C340.319 197.479 340.006 197.54 339.689 197.538H334.402C334.081 197.552 333.761 197.493 333.466 197.366C333.17 197.239 332.907 197.047 332.696 196.804C332.255 196.276 331.987 195.624 331.926 194.938C331.74 192.962 331.123 191.051 330.12 189.338C329.675 188.632 329.095 188.02 328.413 187.538C327.766 187.095 327.131 186.683 326.507 186.304C325.943 185.972 325.415 185.581 324.934 185.138C324.721 184.932 324.554 184.682 324.444 184.406C324.335 184.13 324.285 183.834 324.298 183.538V180.204C324.284 179.929 324.337 179.655 324.453 179.405C324.569 179.155 324.745 178.938 324.965 178.771C325.428 178.432 325.991 178.256 326.565 178.271C327.337 178.277 328.09 178.509 328.731 178.938C329.405 179.371 330.031 179.874 330.598 180.438C331.12 180.955 331.599 181.512 332.032 182.105C332.432 182.661 332.721 183.072 332.898 183.338L332.899 180.538ZM324.967 231.369C324.584 231.057 324.324 230.62 324.231 230.135V227.269C324.218 226.445 324.378 225.628 324.699 224.869C325.012 224.158 325.749 223.514 326.909 222.935C327.606 222.636 328.224 222.18 328.715 221.602C329.203 221.029 329.608 220.389 329.919 219.702C330.23 219.016 330.477 218.302 330.655 217.569C330.826 216.877 330.96 216.176 331.058 215.469C331.09 215.203 331.178 214.947 331.316 214.717C331.453 214.488 331.638 214.289 331.858 214.136C332.31 213.823 332.848 213.66 333.397 213.669H339.821C340.149 213.647 340.477 213.712 340.771 213.859C341.065 214.005 341.315 214.227 341.494 214.502C341.854 215.07 342.04 215.731 342.03 216.402V216.869C341.733 219.077 341.066 221.218 340.056 223.202C339.171 224.926 337.993 226.483 336.575 227.802C335.241 229.03 333.701 230.011 332.025 230.702C330.327 231.398 328.534 231.836 326.706 232.002C326.065 232.029 325.44 231.801 324.967 231.369ZM357.967 230.602C357.964 231.234 358.087 231.859 358.327 232.443C358.567 233.026 358.921 233.556 359.367 234.002C359.813 234.449 360.343 234.802 360.927 235.043C361.51 235.283 362.136 235.405 362.767 235.402H414.498C415.129 235.405 415.754 235.283 416.338 235.043C416.921 234.802 417.452 234.449 417.898 234.002C418.344 233.556 418.698 233.026 418.938 232.443C419.178 231.859 419.301 231.234 419.298 230.602V178.869C419.301 178.238 419.178 177.613 418.938 177.029C418.698 176.445 418.344 175.915 417.898 175.469C417.452 175.023 416.921 174.669 416.338 174.429C415.754 174.189 415.129 174.066 414.498 174.069H362.764C362.133 174.066 361.508 174.189 360.924 174.429C360.341 174.669 359.811 175.023 359.364 175.469C358.918 175.915 358.565 176.445 358.324 177.029C358.084 177.613 357.962 178.238 357.964 178.869V230.602H357.967ZM379.331 178.969C379.558 179.189 379.737 179.454 379.857 179.746C379.977 180.039 380.037 180.353 380.031 180.669V184.469C380.032 184.785 379.971 185.097 379.851 185.389C379.731 185.681 379.554 185.946 379.331 186.169C379.108 186.392 378.843 186.569 378.551 186.689C378.259 186.809 377.946 186.87 377.631 186.869H376.964V192.335C376.975 192.639 376.921 192.942 376.806 193.224C376.691 193.505 376.518 193.759 376.298 193.969C376.086 194.175 375.836 194.337 375.561 194.446C375.287 194.554 374.993 194.608 374.698 194.602H370.164C369.869 194.608 369.576 194.555 369.301 194.446C369.026 194.337 368.776 194.175 368.564 193.969C368.344 193.759 368.171 193.505 368.056 193.224C367.941 192.942 367.887 192.639 367.898 192.335V180.535C367.9 179.935 368.14 179.36 368.564 178.935C368.989 178.511 369.564 178.271 370.164 178.269H377.631C377.947 178.263 378.261 178.322 378.553 178.443C378.846 178.563 379.11 178.742 379.331 178.969ZM393.664 178.969C393.891 179.19 394.07 179.454 394.19 179.747C394.311 180.039 394.37 180.353 394.364 180.669V222.669H396.764C397.065 222.666 397.364 222.727 397.639 222.848C397.915 222.968 398.162 223.146 398.364 223.369C398.578 223.584 398.746 223.839 398.861 224.119C398.975 224.399 399.033 224.699 399.031 225.002V228.935C399.029 229.536 398.789 230.111 398.364 230.536C397.94 230.96 397.365 231.2 396.764 231.202H380.498C379.877 231.203 379.28 230.964 378.831 230.535C378.6 230.338 378.414 230.093 378.287 229.817C378.161 229.54 378.096 229.239 378.098 228.935V225.002C378.098 224.694 378.164 224.389 378.29 224.107C378.416 223.826 378.601 223.574 378.831 223.369C379.049 223.148 379.308 222.972 379.594 222.852C379.88 222.732 380.188 222.67 380.498 222.669H382.898V180.669C382.897 180.353 382.958 180.041 383.078 179.749C383.198 179.457 383.375 179.192 383.598 178.969C383.821 178.746 384.086 178.569 384.378 178.449C384.67 178.329 384.982 178.268 385.298 178.269H391.964C392.281 178.263 392.595 178.322 392.887 178.443C393.179 178.563 393.444 178.742 393.664 178.969ZM400.231 186.869H399.631C399.315 186.87 399.003 186.809 398.711 186.689C398.419 186.569 398.154 186.392 397.931 186.169C397.708 185.946 397.531 185.681 397.411 185.389C397.291 185.097 397.23 184.785 397.231 184.469V180.669C397.23 180.353 397.291 180.041 397.411 179.749C397.531 179.457 397.708 179.192 397.931 178.969C398.154 178.746 398.419 178.569 398.711 178.449C399.003 178.329 399.315 178.268 399.631 178.269H407.031C407.334 178.267 407.634 178.325 407.914 178.439C408.194 178.554 408.449 178.722 408.664 178.935C408.887 179.138 409.065 179.385 409.186 179.661C409.306 179.936 409.367 180.235 409.364 180.535V192.335C409.374 192.642 409.316 192.948 409.195 193.23C409.074 193.512 408.893 193.764 408.664 193.969C408.222 194.382 407.637 194.609 407.031 194.602H402.564C401.959 194.609 401.374 194.382 400.931 193.969C400.702 193.764 400.521 193.512 400.4 193.23C400.279 192.948 400.221 192.642 400.231 192.335V186.869Z" stroke="#212121" stroke-width="0.5"/>
</g>
<defs>
<clipPath id="clip0">
<rect width="512" height="512" fill="white"/>
</clipPath>
</defs>
</svg>
