<svg xmlns="http://www.w3.org/2000/svg" width="512" height="512" viewBox="0 0 1024 1024">
  <metadata><?xpacket begin="﻿" id="W5M0MpCehiHzreSzNTczkc9d"?>
<x:xmpmeta xmlns:x="adobe:ns:meta/" x:xmptk="Adobe XMP Core 5.6-c138 79.159824, 2016/09/14-01:09:01        ">
   <rdf:RDF xmlns:rdf="http://www.w3.org/1999/02/22-rdf-syntax-ns#">
      <rdf:Description rdf:about=""/>
   </rdf:RDF>
</x:xmpmeta>
                                                                                                    
                                                                                                    
                                                                                                    
                                                                                                    
                                                                                                    
                                                                                                    
                                                                                                    
                                                                                                    
                                                                                                    
                                                                                                    
                                                                                                    
                                                                                                    
                                                                                                    
                                                                                                    
                                                                                                    
                                                                                                    
                                                                                                    
                                                                                                    
                                                                                                    
                                                                                                    
                           
<?xpacket end="w"?></metadata>
<defs>
    <style>
      .cls-1 {
        fill-rule: evenodd;
      }
    </style>
  </defs>
  <path class="cls-1" d="M939,0H0V26L136,160V820h35V146L59,34H939V0ZM203,137H863L999,0h25V939H990V60L877,171l-674-1V137ZM0,84H34V964L150,852l669,1v35H160L25,1024H0V84ZM853,204h34V862l137,137v25H85V990H966L853,877V204ZM86,154a16.507,16.507,0,1,1-17,16.5A16.755,16.755,0,0,1,86,154ZM853.5,68A17.5,17.5,0,1,1,836,85.5,17.5,17.5,0,0,1,853.5,68ZM939,154a17,17,0,1,1-17,17A17,17,0,0,1,939,154Zm-0.5,682A17.5,17.5,0,1,1,921,853.5,17.5,17.5,0,0,1,938.5,836Zm-85,85A17.5,17.5,0,1,1,836,938.5,17.5,17.5,0,0,1,853.5,921Zm-768-86A17.5,17.5,0,1,1,68,852.5,17.5,17.5,0,0,1,85.5,835Zm85,86A17.5,17.5,0,1,1,153,938.5,17.5,17.5,0,0,1,170.5,921Zm0-853A17.5,17.5,0,1,1,153,85.5,17.5,17.5,0,0,1,170.5,68Z"/>
  <path id="REACT_REDUX_SPA" data-name="REACT REDUX SPA" class="cls-1" d="M301.945,424.96a9.56,9.56,0,0,0,9.6-9.6V311.893a9.562,9.562,0,0,0-9.6-9.6H198.478a9.562,9.562,0,0,0-9.6,9.6V415.36a9.56,9.56,0,0,0,9.6,9.6H301.945ZM239.739,311.893a4.7,4.7,0,0,1,1.406,3.334v84h3.333a4.625,4.625,0,0,1,3.4,1.4,4.475,4.475,0,0,1,1.4,3.266v7.734a4.464,4.464,0,0,1-1.406,3.266,4.649,4.649,0,0,1-3.41,1.4H215.828a4.653,4.653,0,0,1-3.412-1.4,4.462,4.462,0,0,1-1.4-3.266v-7.734a4.438,4.438,0,0,1,1.423-3.266,4.748,4.748,0,0,1,3.458-1.4h3.119v-71.6h-3.119a4.937,4.937,0,0,1-4.881-4.8v-7.733a4.466,4.466,0,0,1,1.406-3.267,4.655,4.655,0,0,1,3.414-1.4h20.492A4.559,4.559,0,0,1,239.739,311.893Zm7.006,47.734a4.2,4.2,0,0,1,.4-1.6,1.907,1.907,0,0,1,1.733-1.067,22.464,22.464,0,0,0,3.534-.667,10.33,10.33,0,0,0,4-2.133,12.279,12.279,0,0,0,3.266-4.667,20.7,20.7,0,0,0,1.334-8.133q0-6.8-2.4-9.933t-7.334-3.667a5.062,5.062,0,0,1-3.133-1.666,4.709,4.709,0,0,1-1.267-3.267v-7.6a4.707,4.707,0,0,1,1.4-3.334,4.529,4.529,0,0,1,3.4-1.466h5.467q12.8,0,19.4,6.533t6.6,21.333q0,12.535-4.867,18.6t-14.466,7.934v0.666a35.488,35.488,0,0,1,6.066,1.134,10.116,10.116,0,0,1,4.2,2.4,13.492,13.492,0,0,1,2.934,4.466,39.969,39.969,0,0,1,2.133,7.067l4,18.667h2.4a4.626,4.626,0,0,1,3.4,1.4,4.479,4.479,0,0,1,1.4,3.266v7.734a4.477,4.477,0,0,1-1.4,3.266,4.626,4.626,0,0,1-3.4,1.4H271.278a8.815,8.815,0,0,1-5.4-1.733,7.759,7.759,0,0,1-3-4.667l-6.666-25.466q-1.07-3.6-2-6.134a7.232,7.232,0,0,0-2.8-3.733,21.353,21.353,0,0,1-3.2-2.466,4.634,4.634,0,0,1-1.334-3.534Zm186.932,65.2a9.56,9.56,0,0,0,9.6-9.6V311.76a9.56,9.56,0,0,0-9.6-9.6H330.211a9.56,9.56,0,0,0-9.6,9.6V415.227a9.56,9.56,0,0,0,9.6,9.6H433.677ZM372.944,311.7a4.641,4.641,0,0,1,1.4,3.4v96.521a4.783,4.783,0,0,1-4.8,4.806H350.077a4.613,4.613,0,0,1-3.4-1.411,4.686,4.686,0,0,1-1.4-3.427v-7.658a4.688,4.688,0,0,1,1.4-3.427,4.612,4.612,0,0,1,3.4-1.41h3.067v-71.6h-3.067a4.778,4.778,0,0,1-4.8-4.8V314.96a4.481,4.481,0,0,1,1.4-3.267,4.63,4.63,0,0,1,3.4-1.4h19.467A4.631,4.631,0,0,1,372.944,311.7Zm8.6,43.864a4.7,4.7,0,0,1,3.333-1.4h2.533v-4.267a4.479,4.479,0,0,1,1.4-3.266,4.629,4.629,0,0,1,3.4-1.4h4.133a4.628,4.628,0,0,1,3.4,1.4,4.479,4.479,0,0,1,1.4,3.266v24.534a4.78,4.78,0,0,1-4.8,4.8h-4.133a4.78,4.78,0,0,1-4.8-4.8v-4h-2.533a4.7,4.7,0,0,1-3.333-1.4,4.521,4.521,0,0,1-1.467-3.4V358.96A4.521,4.521,0,0,1,381.544,355.56Zm0-29.466a4.523,4.523,0,0,1-1.467-3.4v-7.6a4.523,4.523,0,0,1,1.467-3.4,4.7,4.7,0,0,1,3.333-1.4H413.81a4.785,4.785,0,0,1,4.667,4.667v18.8a4.629,4.629,0,0,1-1.4,3.4,4.475,4.475,0,0,1-3.267,1.4h-8a4.78,4.78,0,0,1-4.8-4.8v-6.267H384.877A4.7,4.7,0,0,1,381.544,326.094Zm19.466,73v-8a4.78,4.78,0,0,1,4.8-4.8h8a4.479,4.479,0,0,1,3.267,1.4,4.632,4.632,0,0,1,1.4,3.4v20.631a4.529,4.529,0,0,1-1.4,3.291,4.464,4.464,0,0,1-3.267,1.411H384.877a4.679,4.679,0,0,1-3.333-1.411,4.574,4.574,0,0,1-1.467-3.427v-7.658a4.576,4.576,0,0,1,1.467-3.427,4.678,4.678,0,0,1,3.333-1.41H401.01Zm164.4,25.6a9.564,9.564,0,0,0,9.6-9.61V311.5a9.569,9.569,0,0,0-9.6-9.611H461.943a9.569,9.569,0,0,0-9.6,9.611V415.083a9.564,9.564,0,0,0,9.6,9.61H565.409Zm-66.533-25.6a4.778,4.778,0,0,1,4.8,4.8v7.6a4.78,4.78,0,0,1-4.8,4.8H474.209a4.78,4.78,0,0,1-4.8-4.8v-7.6a4.522,4.522,0,0,1,1.467-3.4,5.185,5.185,0,0,1,3.733-1.4l24.534-83.2a5.017,5.017,0,0,1,.4-1.066,1.517,1.517,0,0,1,1.066-1.067,1.833,1.833,0,0,1,1.067.667,0.775,0.775,0,0,1,.267.533l6.533,26.667a7.17,7.17,0,0,1,.4,2.266,5.938,5.938,0,0,1-.133,1.267c-0.09.4-.18,0.823-0.267,1.267l-14,52.667h4.4Zm9.733-82.946a3.458,3.458,0,0,1-.133-1.065,4.681,4.681,0,0,1,1.4-3.325,4.533,4.533,0,0,1,3.4-1.465h10.267a4.722,4.722,0,0,1,2.866.934,5.09,5.09,0,0,1,1.8,2.4l25.067,85.467a4.48,4.48,0,0,1,3.267,1.4,4.632,4.632,0,0,1,1.4,3.4v7.6a4.641,4.641,0,0,1-1.4,3.4,4.449,4.449,0,0,1-3.254,1.4H525.526a4.768,4.768,0,0,1-4.783-4.8v-7.6a4.66,4.66,0,0,1,1.379-3.4,4.523,4.523,0,0,1,3.348-1.4h3.939l-3.466-13.2h-15.6a4.544,4.544,0,0,1-3.467-1.41,4.805,4.805,0,0,1-1.333-3.429,4.079,4.079,0,0,1,.133-1.21l1.733-6.721a4.7,4.7,0,0,1,4.667-3.63h8.933Zm75.466,98.946a9.56,9.56,0,0,0,9.6,9.6H697.141a9.56,9.56,0,0,0,9.6-9.6V311.627a9.56,9.56,0,0,0-9.6-9.6H593.675a9.56,9.56,0,0,0-9.6,9.6V415.094Zm54.05-106.2a0.534,0.534,0,0,1,.333-0.066,3.939,3.939,0,0,1,3.011,1.4,4.548,4.548,0,0,1,1.273,3.133v10.4a5.2,5.2,0,0,1-2.134,4.4,17.905,17.905,0,0,0-5.066,6.667,42.527,42.527,0,0,0-3.067,9.333,78.91,78.91,0,0,0-1.467,10.467q-0.4,5.4-.4,10.066,0,4.269.334,9.2a62.894,62.894,0,0,0,1.4,9.667,40.379,40.379,0,0,0,3,8.733,16.534,16.534,0,0,0,5,6.267,5.578,5.578,0,0,1,2.4,4.534v9.066a4.254,4.254,0,0,1-1.407,3.2,4.615,4.615,0,0,1-3.277,1.333,3.514,3.514,0,0,1-1.071-.133,34.34,34.34,0,0,1-14.052-7.4,40.933,40.933,0,0,1-9.368-12.333,59.171,59.171,0,0,1-5.219-16,102.318,102.318,0,0,1-1.606-18.4,95.673,95.673,0,0,1,1.872-19.267,59.917,59.917,0,0,1,5.688-16.267,38.419,38.419,0,0,1,9.635-11.866,29.1,29.1,0,0,1,13.852-6.067A0.525,0.525,0,0,0,638.125,308.893Zm27.55,6.067a4.609,4.609,0,0,1,1.41-3.4,4.682,4.682,0,0,1,3.425-1.4h8.729a4.685,4.685,0,0,1,3.425,1.4,4.613,4.613,0,0,1,1.411,3.4v29.2a4.79,4.79,0,0,1-4.819,4.8H668.683a4.276,4.276,0,0,1-3.412-1.467,6.748,6.748,0,0,1-1.54-3.733,27.228,27.228,0,0,0-3.612-11.2,12.7,12.7,0,0,0-3.415-3.6q-1.941-1.33-3.812-2.467a18.493,18.493,0,0,1-3.146-2.333,4.191,4.191,0,0,1-1.271-3.2v-6.667a3.368,3.368,0,0,1,1.333-2.866,5.174,5.174,0,0,1,3.2-1,7.889,7.889,0,0,1,4.333,1.333,22.722,22.722,0,0,1,3.734,3,27.584,27.584,0,0,1,2.867,3.334q1.2,1.668,1.733,2.466v-5.6ZM649.812,416.627a4.2,4.2,0,0,1-1.471-2.467v-5.733a11.8,11.8,0,0,1,.936-4.8q0.938-2.132,4.419-3.867a9.825,9.825,0,0,0,3.612-2.666,16.1,16.1,0,0,0,2.408-3.8,24.178,24.178,0,0,0,1.473-4.266,41.013,41.013,0,0,0,.805-4.2,3.807,3.807,0,0,1,1.6-2.667,5.256,5.256,0,0,1,3.079-.933h12.848a3.694,3.694,0,0,1,3.346,1.666,6.9,6.9,0,0,1,1.071,3.8v0.934a39.564,39.564,0,0,1-3.948,12.666,33.42,33.42,0,0,1-6.961,9.2,30.775,30.775,0,0,1-9.1,5.8,36.966,36.966,0,0,1-10.639,2.6A4.858,4.858,0,0,1,649.812,416.627Zm66-1.533a9.56,9.56,0,0,0,9.6,9.6H828.874a9.56,9.56,0,0,0,9.6-9.6V311.627a9.56,9.56,0,0,0-9.6-9.6H725.407a9.56,9.56,0,0,0-9.6,9.6V415.094ZM758.54,311.827a4.625,4.625,0,0,1,1.4,3.4v7.6a4.78,4.78,0,0,1-4.8,4.8h-1.333V338.56a4.312,4.312,0,0,1-1.333,3.267,4.48,4.48,0,0,1-3.2,1.267h-9.067a4.471,4.471,0,0,1-3.2-1.267,4.3,4.3,0,0,1-1.333-3.267v-23.6a4.551,4.551,0,0,1,4.533-4.533H755.14A4.625,4.625,0,0,1,758.54,311.827Zm28.667,0a4.629,4.629,0,0,1,1.4,3.4v84h4.8a4.263,4.263,0,0,1,3.2,1.4,4.592,4.592,0,0,1,1.333,3.266v7.867a4.551,4.551,0,0,1-4.533,4.533H760.874a4.821,4.821,0,0,1-3.334-1.333,4.172,4.172,0,0,1-1.466-3.2v-7.867a4.377,4.377,0,0,1,1.466-3.266,4.694,4.694,0,0,1,3.334-1.4h4.8v-84a4.78,4.78,0,0,1,4.8-4.8h13.333A4.626,4.626,0,0,1,787.207,311.827Zm13.133,15.8h-1.2a4.78,4.78,0,0,1-4.8-4.8v-7.6a4.78,4.78,0,0,1,4.8-4.8h14.8a4.6,4.6,0,0,1,3.267,1.333,4.267,4.267,0,0,1,1.4,3.2v23.6a4.206,4.206,0,0,1-1.4,3.267,4.71,4.71,0,0,1-3.267,1.267h-8.933a4.709,4.709,0,0,1-3.267-1.267,4.206,4.206,0,0,1-1.4-3.267V327.627ZM301.945,584.96a9.56,9.56,0,0,0,9.6-9.6V471.893a9.562,9.562,0,0,0-9.6-9.6H198.478a9.562,9.562,0,0,0-9.6,9.6V575.36a9.56,9.56,0,0,0,9.6,9.6H301.945ZM239.739,471.893a4.7,4.7,0,0,1,1.406,3.334v84h3.333a4.625,4.625,0,0,1,3.4,1.4,4.475,4.475,0,0,1,1.4,3.266v7.734a4.464,4.464,0,0,1-1.406,3.266,4.649,4.649,0,0,1-3.41,1.4H215.828a4.653,4.653,0,0,1-3.412-1.4,4.462,4.462,0,0,1-1.4-3.266v-7.734a4.438,4.438,0,0,1,1.423-3.266,4.748,4.748,0,0,1,3.458-1.4h3.119v-71.6h-3.119a4.937,4.937,0,0,1-4.881-4.8v-7.733a4.466,4.466,0,0,1,1.406-3.267,4.655,4.655,0,0,1,3.414-1.4h20.492A4.559,4.559,0,0,1,239.739,471.893Zm7.006,47.734a4.2,4.2,0,0,1,.4-1.6,1.907,1.907,0,0,1,1.733-1.067,22.464,22.464,0,0,0,3.534-.667,10.33,10.33,0,0,0,4-2.133,12.279,12.279,0,0,0,3.266-4.667,20.7,20.7,0,0,0,1.334-8.133q0-6.8-2.4-9.933t-7.334-3.667a5.062,5.062,0,0,1-3.133-1.666,4.709,4.709,0,0,1-1.267-3.267v-7.6a4.707,4.707,0,0,1,1.4-3.334,4.529,4.529,0,0,1,3.4-1.466h5.467q12.8,0,19.4,6.533t6.6,21.333q0,12.535-4.867,18.6t-14.466,7.934v0.666a35.488,35.488,0,0,1,6.066,1.134,10.116,10.116,0,0,1,4.2,2.4,13.492,13.492,0,0,1,2.934,4.466,39.969,39.969,0,0,1,2.133,7.067l4,18.667h2.4a4.626,4.626,0,0,1,3.4,1.4,4.479,4.479,0,0,1,1.4,3.266v7.734a4.477,4.477,0,0,1-1.4,3.266,4.626,4.626,0,0,1-3.4,1.4H271.278a8.815,8.815,0,0,1-5.4-1.733,7.759,7.759,0,0,1-3-4.667l-6.666-25.466q-1.07-3.6-2-6.134a7.232,7.232,0,0,0-2.8-3.733,21.353,21.353,0,0,1-3.2-2.466,4.634,4.634,0,0,1-1.334-3.534Zm186.932,65.2a9.56,9.56,0,0,0,9.6-9.6V471.76a9.56,9.56,0,0,0-9.6-9.6H330.211a9.56,9.56,0,0,0-9.6,9.6V575.227a9.56,9.56,0,0,0,9.6,9.6H433.677ZM372.944,471.7a4.641,4.641,0,0,1,1.4,3.4v96.521a4.783,4.783,0,0,1-4.8,4.806H350.077a4.613,4.613,0,0,1-3.4-1.411,4.686,4.686,0,0,1-1.4-3.427v-7.658a4.688,4.688,0,0,1,1.4-3.427,4.612,4.612,0,0,1,3.4-1.41h3.067v-71.6h-3.067a4.778,4.778,0,0,1-4.8-4.8V474.96a4.481,4.481,0,0,1,1.4-3.267,4.63,4.63,0,0,1,3.4-1.4h19.467A4.631,4.631,0,0,1,372.944,471.7Zm8.6,43.864a4.7,4.7,0,0,1,3.333-1.4h2.533v-4.267a4.479,4.479,0,0,1,1.4-3.266,4.629,4.629,0,0,1,3.4-1.4h4.133a4.628,4.628,0,0,1,3.4,1.4,4.479,4.479,0,0,1,1.4,3.266v24.534a4.78,4.78,0,0,1-4.8,4.8h-4.133a4.78,4.78,0,0,1-4.8-4.8v-4h-2.533a4.7,4.7,0,0,1-3.333-1.4,4.521,4.521,0,0,1-1.467-3.4V518.96A4.521,4.521,0,0,1,381.544,515.56Zm0-29.466a4.523,4.523,0,0,1-1.467-3.4v-7.6a4.523,4.523,0,0,1,1.467-3.4,4.7,4.7,0,0,1,3.333-1.4H413.81a4.785,4.785,0,0,1,4.667,4.667v18.8a4.629,4.629,0,0,1-1.4,3.4,4.475,4.475,0,0,1-3.267,1.4h-8a4.78,4.78,0,0,1-4.8-4.8v-6.267H384.877A4.7,4.7,0,0,1,381.544,486.094Zm19.466,73v-8a4.78,4.78,0,0,1,4.8-4.8h8a4.479,4.479,0,0,1,3.267,1.4,4.632,4.632,0,0,1,1.4,3.4v20.631a4.529,4.529,0,0,1-1.4,3.291,4.464,4.464,0,0,1-3.267,1.411H384.877a4.679,4.679,0,0,1-3.333-1.411,4.574,4.574,0,0,1-1.467-3.427v-7.658a4.576,4.576,0,0,1,1.467-3.427,4.678,4.678,0,0,1,3.333-1.41H401.01Zm51.333,15.989a9.564,9.564,0,0,0,9.6,9.61H565.409a9.564,9.564,0,0,0,9.6-9.61V471.5a9.569,9.569,0,0,0-9.6-9.611H461.943a9.569,9.569,0,0,0-9.6,9.611V575.083Zm57.066-88.856q-2-1.266-2-4.6v-6.533a4.523,4.523,0,0,1,1.467-3.4,4.7,4.7,0,0,1,3.333-1.4h4.134a38.022,38.022,0,0,1,17.466,3.8,34.23,34.23,0,0,1,12.467,10.8,49.32,49.32,0,0,1,7.467,16.867,90.261,90.261,0,0,1,2.466,21.867q0,26.268-10.866,39.467t-31.667,13.2h-1.467a5.023,5.023,0,0,1-4.8-4.8V563.76a4.587,4.587,0,0,1,1.334-3.267,4.756,4.756,0,0,1,3.2-1.533,25.875,25.875,0,0,0,6.933-1.6,15.034,15.034,0,0,0,6.6-5.266,32.99,32.99,0,0,0,5-11.2q2-7.265,2-19.4,0-14.931-4.2-23.666t-15.267-10.2A8.194,8.194,0,0,1,509.409,486.227Zm-30.533,72.867v-71.6h-3.067a4.778,4.778,0,0,1-4.8-4.8V474.96a4.481,4.481,0,0,1,1.4-3.267,4.632,4.632,0,0,1,3.4-1.4h21.067a4.78,4.78,0,0,1,4.8,4.8v96.4a4.7,4.7,0,0,1-1.4,3.334,4.527,4.527,0,0,1-3.4,1.466H475.809a4.78,4.78,0,0,1-4.8-4.8v-7.6a4.778,4.778,0,0,1,4.8-4.8h3.067Zm218.265,25.733a9.56,9.56,0,0,0,9.6-9.6V471.76a9.56,9.56,0,0,0-9.6-9.6H593.675a9.56,9.56,0,0,0-9.6,9.6V575.227a9.56,9.56,0,0,0,9.6,9.6H697.141Zm-54.933-8.6a6.089,6.089,0,0,1-3.6,1.133,4.115,4.115,0,0,1-1.2-.133,29.273,29.273,0,0,1-13-4.934,30.5,30.5,0,0,1-8.2-8.733,34.647,34.647,0,0,1-4.333-10.733,50.609,50.609,0,0,1-1.267-10.934v-54.4h-1.6a4.26,4.26,0,0,1-3.2-1.4,4.75,4.75,0,0,1-1.333-3.4v-7.866a4.306,4.306,0,0,1,1.333-3.267,4.48,4.48,0,0,1,3.2-1.267h28.133a4.967,4.967,0,0,1,3.334,1.267,4.122,4.122,0,0,1,1.467,3.267v7.866a4.53,4.53,0,0,1-1.467,3.4,4.7,4.7,0,0,1-3.334,1.4h-3.866v51.334a44,44,0,0,0,1.6,12.133,13.348,13.348,0,0,0,5.733,8.134,5.669,5.669,0,0,1,3.2,5.066v8.8A3.759,3.759,0,0,1,642.208,576.227Zm10.4-101.4a4.207,4.207,0,0,1,1.4-3.267,4.891,4.891,0,0,1,3.4-1.267h24.134a4.719,4.719,0,0,1,3.266,1.267,4.2,4.2,0,0,1,1.4,3.267v7.866a4.629,4.629,0,0,1-1.4,3.4,4.478,4.478,0,0,1-3.266,1.4h-1.734V539.76q0,17.069-6.733,26a29.089,29.089,0,0,1-18.333,11.2h-0.667a4.551,4.551,0,0,1-4.533-4.533v-8.134a4.919,4.919,0,0,1,.933-3,8.8,8.8,0,0,1,2.4-2.2,13.4,13.4,0,0,0,6.067-8.067,40.079,40.079,0,0,0,1.8-12.2V487.493h-3.334a4.778,4.778,0,0,1-4.8-4.8v-7.866Zm63.2,100.267a9.56,9.56,0,0,0,9.6,9.6H828.874a9.56,9.56,0,0,0,9.6-9.6V471.627a9.56,9.56,0,0,0-9.6-9.6H725.407a9.56,9.56,0,0,0-9.6,9.6V575.094Zm24.133-87.467h-0.933a4.261,4.261,0,0,1-3.2-1.4,4.582,4.582,0,0,1-1.333-3.267v-8a4.3,4.3,0,0,1,1.333-3.267,4.483,4.483,0,0,1,3.2-1.266H769.14a4.567,4.567,0,0,1,3.134,1.266,4.209,4.209,0,0,1,1.4,3.267v8a4.478,4.478,0,0,1-1.4,3.267,4.342,4.342,0,0,1-3.134,1.4h-2l48.267,71.6h1.467a4.563,4.563,0,0,1,3.133,1.266,4.209,4.209,0,0,1,1.4,3.267v8a4.207,4.207,0,0,1-1.4,3.267,4.558,4.558,0,0,1-3.133,1.266H785.807a4.338,4.338,0,0,1-4.533-4.533v-8a4.338,4.338,0,0,1,4.533-4.533h2.133Zm17.711,44.4a4.764,4.764,0,0,1,4.383,0,4.187,4.187,0,0,1,1.794,1.6l4.781,7.066a4.722,4.722,0,0,1,.8,2.667,5.675,5.675,0,0,1-.667,2.533l-8,13.334h4a4.34,4.34,0,0,1,4.534,4.533v8a4.333,4.333,0,0,1-4.517,4.533H737.39a4.457,4.457,0,0,1-3.189-1.266,4.312,4.312,0,0,1-1.327-3.267v-8a4.314,4.314,0,0,1,1.327-3.267,4.461,4.461,0,0,1,3.189-1.266h1.2l17.271-25.6A4.164,4.164,0,0,1,757.651,532.027Zm26.956-30.267a5.452,5.452,0,0,1,.667-2.4l6.666-11.733h-3.333a4.259,4.259,0,0,1-3.2-1.4,4.582,4.582,0,0,1-1.333-3.267v-8a4.3,4.3,0,0,1,1.333-3.267,4.481,4.481,0,0,1,3.2-1.266h26.8a4.49,4.49,0,0,1,3.2,1.266,4.311,4.311,0,0,1,1.333,3.267v8a4.591,4.591,0,0,1-1.333,3.267,4.267,4.267,0,0,1-3.2,1.4h-1.2l-16.133,23.866a4.185,4.185,0,0,1-1.8,1.6,5.153,5.153,0,0,1-2.2.533,4.287,4.287,0,0,1-3.867-2.134l-4.8-7.066a4.7,4.7,0,0,1-.8-2.667h0Zm-464,233.467a9.56,9.56,0,0,0,9.6,9.6H433.677a9.56,9.56,0,0,0,9.6-9.6V631.76a9.56,9.56,0,0,0-9.6-9.6H330.211a9.56,9.56,0,0,0-9.6,9.6V735.227Zm56-106.667a3.029,3.029,0,0,1,1.067.534,4.007,4.007,0,0,1,1,1.2,4.226,4.226,0,0,1,.467,2.134v9.733a4.2,4.2,0,0,1-1.267,3.2q-1.269,1.2-2.733,2.467a17.92,17.92,0,0,0-2.734,3,7.5,7.5,0,0,0-1.266,4.533,12.9,12.9,0,0,0,.8,4.8,10.087,10.087,0,0,0,3.2,3.934,44.922,44.922,0,0,0,6.733,4.266q4.332,2.334,11.4,5.667,5.466,2.668,9.6,5.2a27.479,27.479,0,0,1,6.933,5.933,22.686,22.686,0,0,1,4.2,8.267,44.3,44.3,0,0,1,1.4,12.066,47.107,47.107,0,0,1-1.866,14.067,26.97,26.97,0,0,1-5.333,9.867,22.942,22.942,0,0,1-8.334,6,33.589,33.589,0,0,1-11,2.466,4.261,4.261,0,0,1-2.933-1.066,3.728,3.728,0,0,1-1.2-2.934v-9.466a4.325,4.325,0,0,1,1.2-3.2l2.8-2.8a19.035,19.035,0,0,0,2.733-3.534,10.512,10.512,0,0,0,1.267-5.533,15.45,15.45,0,0,0-.8-5.266,10.128,10.128,0,0,0-3.2-4.2,35.142,35.142,0,0,0-6.667-4.133q-4.269-2.131-11.067-5.067a73.767,73.767,0,0,1-8-3.933,28.129,28.129,0,0,1-6.866-5.467,25.487,25.487,0,0,1-4.867-8,31.471,31.471,0,0,1-1.867-11.533q0-16.931,6.734-25t20.067-8.333Zm1.334,92.667a4.325,4.325,0,0,1,1.2,3.2v6.667a4.533,4.533,0,0,1-1.334,3.066,3.817,3.817,0,0,1-2.8,1.467q-1.868,0-4.2-2.6a21.726,21.726,0,0,1-3.666-5.534H366.61v4a4.887,4.887,0,0,1-1.266,3.4,4.205,4.205,0,0,1-3.267,1.4H353.01a4.331,4.331,0,0,1-3.133-1.4,4.629,4.629,0,0,1-1.4-3.4V705.627a4.629,4.629,0,0,1,1.4-3.4,4.331,4.331,0,0,1,3.133-1.4h10.267a3.959,3.959,0,0,1,3.4,1.533,7.682,7.682,0,0,1,1.4,3.667,39.36,39.36,0,0,0,1.867,7.933,9.384,9.384,0,0,0,4.933,5.134A11.684,11.684,0,0,1,377.944,721.227Zm18.133-86.4a4.306,4.306,0,0,1,1.333-3.267,4.481,4.481,0,0,1,3.2-1.267h8.267a4.888,4.888,0,0,1,3.4,1.267,4.2,4.2,0,0,1,1.4,3.267v23.466a4.782,4.782,0,0,1-4.8,4.8h-8.8a4.567,4.567,0,0,1-3.467-1.4,6.192,6.192,0,0,1-1.6-3.666,18.85,18.85,0,0,0-1.8-6.4,10.1,10.1,0,0,0-4.334-4.4,12.831,12.831,0,0,1-3-2.267,4.467,4.467,0,0,1-1.133-3.2v-5.6a4.126,4.126,0,0,1,1.4-3.066,4.172,4.172,0,0,1,2.866-1.334q1.866,0,3.8,2.2a19.263,19.263,0,0,1,3,4.467Zm56.266,100.267a9.56,9.56,0,0,0,9.6,9.6H565.409a9.56,9.56,0,0,0,9.6-9.6V631.627a9.56,9.56,0,0,0-9.6-9.6H461.943a9.56,9.56,0,0,0-9.6,9.6V735.094Zm54.733-103.267a4.629,4.629,0,0,1,1.4,3.4v84h5.733a4.625,4.625,0,0,1,3.4,1.4,4.475,4.475,0,0,1,1.4,3.266v7.734a4.473,4.473,0,0,1-1.4,3.266,4.625,4.625,0,0,1-3.4,1.4H483.276a4.626,4.626,0,0,1-3.4-1.4,4.477,4.477,0,0,1-1.4-3.266v-7.734a4.479,4.479,0,0,1,1.4-3.266,4.626,4.626,0,0,1,3.4-1.4h3.067v-71.6h-3.067a4.521,4.521,0,0,1-3.4-1.467,4.7,4.7,0,0,1-1.4-3.333v-7.733a4.479,4.479,0,0,1,1.4-3.267,4.626,4.626,0,0,1,3.4-1.4h20.4A4.626,4.626,0,0,1,507.076,631.827Zm8.6,49.631a8.622,8.622,0,0,1,3.733-1.8,8.944,8.944,0,0,0,6.534-5.123q1.865-4.056,1.866-12.043,0-7.32-2.4-10.711a10.16,10.16,0,0,0-7.333-4.06,4.515,4.515,0,0,1-2.8-1.463,4.233,4.233,0,0,1-1.067-2.927v-8.119a4.777,4.777,0,0,1,4.8-4.789h4.534a26.381,26.381,0,0,1,11.266,2.329,23.372,23.372,0,0,1,8.467,6.654,30.821,30.821,0,0,1,5.333,10.577,48.8,48.8,0,0,1,1.867,13.973,51.409,51.409,0,0,1-2,15.369,26.113,26.113,0,0,1-5.8,10.314,22.6,22.6,0,0,1-9.333,5.855,38.987,38.987,0,0,1-12.467,1.862h-1.867a4.773,4.773,0,0,1-4.8-4.789v-7.586A4.406,4.406,0,0,1,515.676,681.458Zm181.465,63.235a9.564,9.564,0,0,0,9.6-9.61V631.5a9.569,9.569,0,0,0-9.6-9.611H593.675a9.569,9.569,0,0,0-9.6,9.611V735.083a9.564,9.564,0,0,0,9.6,9.61H697.141Zm-66.533-25.6a4.778,4.778,0,0,1,4.8,4.8v7.6a4.78,4.78,0,0,1-4.8,4.8H605.942a4.782,4.782,0,0,1-4.8-4.8v-7.6a4.522,4.522,0,0,1,1.467-3.4,5.185,5.185,0,0,1,3.733-1.4l24.534-83.2a5.071,5.071,0,0,1,.4-1.066,1.517,1.517,0,0,1,1.066-1.067,1.833,1.833,0,0,1,1.067.667,0.775,0.775,0,0,1,.267.533l6.533,26.667a7.17,7.17,0,0,1,.4,2.266,5.938,5.938,0,0,1-.133,1.267q-0.135.6-.267,1.267l-14,52.667h4.4Zm9.733-82.946a3.458,3.458,0,0,1-.133-1.065,4.681,4.681,0,0,1,1.4-3.325,4.535,4.535,0,0,1,3.4-1.465h10.267a4.725,4.725,0,0,1,2.867.934,5.1,5.1,0,0,1,1.8,2.4l25.066,85.467a4.48,4.48,0,0,1,3.267,1.4,4.632,4.632,0,0,1,1.4,3.4v7.6a4.641,4.641,0,0,1-1.4,3.4,4.449,4.449,0,0,1-3.254,1.4H657.258a4.77,4.77,0,0,1-4.783-4.8v-7.6a4.66,4.66,0,0,1,1.379-3.4,4.523,4.523,0,0,1,3.348-1.4h3.94l-3.467-13.2h-15.6a4.545,4.545,0,0,1-3.467-1.41,4.81,4.81,0,0,1-1.333-3.429,4.113,4.113,0,0,1,.133-1.21l1.733-6.721a4.7,4.7,0,0,1,4.667-3.63h8.934Z"/>
</svg>
